SplineFontDB: 3.0
FontName: aghtex_mathscr
FullName: aghtex_mathscr
FamilyName: aghtex_mathscr
Weight: Roman
Copyright: Copyright (C) 2013 Koichi Murase (AGHTEX_MATHSCR), 1998 Taco Hoekwater, 1991 Ralph Smith (rsfs-1.1 RSFS10). All rights reserved.
Version: 1.2
ItalicAngle: -12
UnderlinePosition: -100
UnderlineWidth: 50
Ascent: 800
Descent: 200
LayerCount: 2
Layer: 0 1 "+gMyXYgAA"  1
Layer: 1 1 "+Uk2XYgAA"  0
FSType: 8
OS2Version: 0
OS2_WeightWidthSlopeOnly: 0
OS2_UseTypoMetrics: 0
CreationTime: 1370035464
ModificationTime: 1383593772
PfmFamily: 17
TTFWeight: 400
TTFWidth: 5
LineGap: 90
VLineGap: 0
OS2TypoAscent: 0
OS2TypoAOffset: 1
OS2TypoDescent: 0
OS2TypoDOffset: 1
OS2TypoLinegap: 90
OS2WinAscent: 0
OS2WinAOffset: 1
OS2WinDescent: 0
OS2WinDOffset: 1
HheadAscent: 0
HheadAOffset: 1
HheadDescent: 0
HheadDOffset: 1
OS2Vendor: 'PfEd'
MarkAttachClasses: 1
DEI: 91125
TtTable: prep
PUSHW_1
 511
SCANCTRL
PUSHB_1
 1
SCANTYPE
SVTCA[y-axis]
MPPEM
PUSHB_1
 8
LT
IF
PUSHB_2
 1
 1
INSTCTRL
EIF
PUSHB_2
 70
 6
CALL
IF
POP
PUSHB_1
 16
EIF
MPPEM
PUSHB_1
 20
GT
IF
POP
PUSHB_1
 128
EIF
SCVTCI
PUSHB_1
 0
DUP
RCVT
PUSHW_3
 1
 -32768
 2
CALL
WCVTP
PUSHB_1
 2
DUP
RCVT
PUSHB_3
 3
 1
 2
CALL
WCVTP
PUSHB_1
 6
CALL
NOT
IF
SVTCA[y-axis]
PUSHB_1
 4
DUP
RCVT
PUSHB_1
 3
CALL
WCVTP
SVTCA[x-axis]
PUSHB_1
 5
DUP
RCVT
PUSHB_1
 3
CALL
WCVTP
PUSHB_1
 6
DUP
RCVT
PUSHB_3
 5
 154
 2
CALL
PUSHB_2
 3
 70
SROUND
CALL
WCVTP
PUSHB_1
 7
DUP
RCVT
PUSHB_3
 6
 33
 2
CALL
PUSHB_2
 3
 70
SROUND
CALL
WCVTP
EIF
PUSHB_1
 20
CALL
EndTTInstrs
TtTable: fpgm
PUSHB_1
 0
FDEF
PUSHB_1
 0
SZP0
MPPEM
PUSHB_1
 46
LT
IF
PUSHB_1
 74
SROUND
EIF
PUSHB_1
 0
SWAP
MIAP[rnd]
RTG
PUSHB_1
 6
CALL
IF
RTDG
EIF
MPPEM
PUSHB_1
 46
LT
IF
RDTG
EIF
DUP
MDRP[rp0,rnd,grey]
PUSHB_1
 1
SZP0
MDAP[no-rnd]
RTG
ENDF
PUSHB_1
 1
FDEF
DUP
MDRP[rp0,min,white]
PUSHB_1
 12
CALL
ENDF
PUSHB_1
 2
FDEF
MPPEM
GT
IF
RCVT
SWAP
EIF
POP
ENDF
PUSHB_1
 3
FDEF
ROUND[Black]
RTG
DUP
PUSHB_1
 64
LT
IF
POP
PUSHB_1
 64
EIF
ENDF
PUSHB_1
 4
FDEF
PUSHB_1
 6
CALL
IF
POP
SWAP
POP

StartChar: B
Encoding: 66 66 0
Width: 908
Flags: W
HStem: -14 22<97.8077 226.42 534.68 597.831> 80 73<63.9612 140.613> 199 22<618.438 688.906> 269 22<215.73 316.001> 297 22<633 691.535> 353 22<651.282 726.183> 686 22<547.425 747.468>
VStem: 34 21<38.2966 94.4293> 163 26<314.508 412.74> 484 22<30.4576 102.5> 504 25<506.09 569.436> 798 47<192.179 322.118> 876 52<484.723 616.121>
LayerCount: 2
Fore
SplineSet
642 708 m 0,0,1
 776 708 776 708 849 666 c 1,2,-1
 901 699 l 2,3,4
 902 700 902 700 905 700 c 0,5,6
 912 700 912 700 914 694 c 2,7,-1
 916 684 l 2,8,9
 916 681 916 681 912 677 c 1,10,11
 891 663 891 663 875 649 c 1,12,13
 881 644 881 644 891 634 c 0,14,15
 928 597 928 597 928 548 c 0,16,17
 928 502 928 502 892 450 c 0,18,19
 853 395 853 395 789 352 c 1,20,21
 821 333 821 333 834 304 c 1,22,23
 845 282 845 282 845 256 c 0,24,25
 845 201 845 201 799 135 c 1,26,27
 755 74 755 74 689 34 c 0,28,29
 620 -8 620 -8 563 -8 c 0,30,31
 500 -8 500 -8 486 39 c 0,32,33
 484 45 484 45 484 58 c 0,34,35
 484 98 484 98 517 145 c 0,36,37
 539 177 539 177 589 199 c 0,38,39
 637 221 637 221 686 221 c 0,40,41
 694 221 694 221 694 213 c 0,42,43
 694 209 694 209 693 208 c 2,44,-1
 689 202 l 2,45,46
 686 199 686 199 682 199 c 0,47,48
 640 199 640 199 597 181 c 1,49,50
 554 161 554 161 536 135 c 0,51,52
 506 93 506 93 506 61 c 0,53,54
 506 55 506 55 508 47 c 0,55,56
 516 14 516 14 567 14 c 0,57,58
 608 14 608 14 659 51 c 0,59,60
 701 82 701 82 747 145 c 0,61,62
 798 216 798 216 798 270 c 0,63,64
 798 280 798 280 794 294 c 0,65,66
 785 321 785 321 761 334 c 1,67,68
 693 297 693 297 640 297 c 0,69,70
 611 297 611 297 594 303 c 1,71,72
 581 285 581 285 524 205 c 0,73,74
 461 116 461 116 358.5 51 c 128,-1,75
 256 -14 256 -14 171 -14 c 0,76,77
 112 -14 112 -14 73 5.5 c 128,-1,78
 34 25 34 25 34 62 c 0,79,80
 34 90 34 90 58 124 c 0,81,82
 78 153 78 153 115 153 c 0,83,84
 148 153 148 153 148 119 c 0,85,86
 148 105 148 105 130 92.5 c 128,-1,87
 112 80 112 80 92 80 c 128,-1,88
 72 80 72 80 63 95 c 1,89,90
 55 77 55 77 55 66 c 0,91,92
 55 37 55 37 88 22.5 c 128,-1,93
 121 8 121 8 175 8 c 0,94,95
 234 8 234 8 305.5 68.5 c 128,-1,96
 377 129 377 129 438 215 c 0,97,98
 511 318 511 318 552 372.5 c 128,-1,99
 593 427 593 427 669.5 509 c 128,-1,100
 746 591 746 591 822 647 c 1,101,102
 759 686 759 686 638 686 c 0,103,104
 532 686 532 686 417 628 c 0,105,106
 303 571 303 571 243 485 c 0,107,108
 189 409 189 409 189 356 c 0,109,110
 189 348 189 348 190 344 c 0,111,112
 197 291 197 291 264 291 c 0,113,114
 304 291 304 291 350 319 c 1,115,116
 389 344 389 344 421 390 c 0,117,118
 448 429 448 429 462.5 451.5 c 128,-1,119
 477 474 477 474 490.5 502.5 c 128,-1,120
 504 531 504 531 504 551 c 2,121,-1
 504 559 l 2,122,123
 504 564 504 564 509 566 c 0,124,125
 512 568 512 568 518 570 c 1,126,127
 527 570 527 570 527 562 c 0,128,129
 529 544 529 544 529 535 c 0,130,131
 529 458 529 458 473 380 c 0,132,133
 440 334 440 334 378 301 c 0,134,135
 316 269 316 269 260 269 c 0,136,137
 220 269 220 269 195 287 c 128,-1,138
 170 305 170 305 165 338 c 0,139,140
 163 350 163 350 163 357 c 0,141,142
 163 417 163 417 218 495 c 0,143,144
 281 583 281 583 405 646 c 0,145,146
 528 708 528 708 642 708 c 0,0,1
684 375 m 0,147,148
 723 375 723 375 753 366 c 1,149,150
 798 401 798 401 839 460 c 0,151,152
 876 513 876 513 876 558 c 0,153,154
 876 598 876 598 849 625 c 1,155,156
 772 546 772 546 644 372 c 1,157,158
 665 375 665 375 684 375 c 0,147,148
641 331 m 0,159,160
 639 328 639 328 636.5 324.5 c 128,-1,161
 634 321 634 321 633 320 c 1,162,163
 635 319 635 319 644 319 c 0,164,165
 680 319 680 319 727 348 c 1,166,167
 704 353 704 353 680 353 c 0,168,169
 664 353 664 353 653 347 c 1,170,171
 649 343 649 343 641 331 c 0,159,160
EndSplineSet
EndChar

StartChar: C
Encoding: 67 67 1
Width: 666
Flags: W
HStem: -19 22<271.855 371.354> 269 22<441.733 518.656> 350 22<160.384 265.605> 654 22<229.5 300.906> 692 22<690.746 772.651>
VStem: 26 51<417.709 539.11> 173 62<34.4824 176.152> 304 28<87.0634 162.578> 534 45<155.269 262.326> 786 26<604.263 680.992>
LayerCount: 2
Fore
SplineSet
345 88 m 0,0,1
 348 85 348 85 348 81 c 0,2,3
 348 80 348 80 346 76 c 1,4,-1
 343 73 l 1,5,-1
 336 71 l 2,6,7
 335 70 335 70 332 70 c 0,8,9
 330 70 330 70 329 71 c 0,10,11
 304 86 304 86 304 117 c 128,-1,12
 304 148 304 148 331 188 c 0,13,14
 359 229 359 229 405 261 c 0,15,16
 449 291 449 291 483 291 c 0,17,18
 561 291 561 291 576 233 c 0,19,20
 579 222 579 222 579 211 c 0,21,22
 579 162 579 162 536 100 c 0,23,24
 502 51 502 51 437 16 c 0,25,26
 373 -19 373 -19 317 -19 c 0,27,28
 254 -19 254 -19 216.5 11 c 128,-1,29
 179 41 179 41 174 94 c 0,30,31
 173 101 173 101 173 116 c 0,32,33
 173 219 173 219 266 350 c 1,34,-1
 245 350 l 2,35,36
 108 350 108 350 52 412 c 0,37,38
 26 441 26 441 26 480 c 0,39,40
 26 521 26 521 57 565 c 0,41,42
 89 611 89 611 160 644 c 0,43,44
 230 676 230 676 298 676 c 0,45,46
 306 676 306 676 306 668 c 0,47,48
 306 667 306 667 301 657 c 1,49,50
 298 654 298 654 294 654 c 0,51,52
 241 654 241 654 188 626 c 1,53,54
 140 599 140 599 109 555 c 0,55,56
 77 508 77 508 77 469 c 0,57,58
 77 442 77 442 90 426 c 0,59,60
 130 372 130 372 249 372 c 0,61,62
 271 372 271 372 282 373 c 1,63,64
 382 509 382 509 511 608 c 0,65,66
 649 714 649 714 740 714 c 0,67,68
 802 714 802 714 811 664 c 0,69,70
 812 660 812 660 812 651 c 0,71,72
 812 608 812 608 774 556 c 1,73,74
 714 470 714 470 559 410 c 0,75,76
 464 373 464 373 364 358 c 1,77,78
 242 188 242 188 235 97 c 1,79,-1
 235 86 l 2,80,81
 235 48 235 48 256.5 25.5 c 128,-1,82
 278 3 278 3 321 3 c 0,83,84
 362 3 362 3 408 33 c 0,85,86
 448 59 448 59 484 110 c 0,87,88
 534 180 534 180 534 223 c 2,89,-1
 534 227 l 1,90,91
 532 269 532 269 479 269 c 0,92,93
 454 269 454 269 419 244 c 128,-1,94
 384 219 384 219 356 179 c 0,95,96
 332 145 332 145 332 118 c 0,97,98
 332 99 332 99 345 88 c 0,0,1
346 76 m 1,99,100
 347 85 l 1,101,-1
 347 84 l 1,102,103
 348 83 348 83 348 81 c 0,104,105
 348 78 348 78 346 76 c 1,99,100
736 692 m 0,106,107
 674 692 674 692 562 592 c 0,108,109
 478 517 478 517 381 383 c 1,110,111
 461 395 461 395 548 428 c 0,112,113
 693 484 693 484 750 565 c 0,114,115
 786 617 786 617 786 649 c 1,116,-1
 785 658 l 1,117,118
 780 692 780 692 736 692 c 0,106,107
EndSplineSet
EndChar

StartChar: D
Encoding: 68 68 2
Width: 774
Flags: W
HStem: -31 22<336.979 455.017> -17 28<122.326 250> 25 23<122.938 249.916> 272 22<210.529 304.37> 549 22<801.26 843.906> 686 22<474.057 633.934>
VStem: 136 47<308.312 442.692> 497 24<499.89 567.938> 771 31<378.873 515.263>
LayerCount: 2
Fore
SplineSet
849 563 m 0,0,1
 849 562 849 562 844 552 c 1,2,3
 841 549 841 549 837 549 c 0,4,5
 820 549 820 549 797 536 c 1,6,7
 802 509 802 509 802 484 c 0,8,9
 802 371 802 371 724 227 c 0,10,11
 681 147 681 147 614 80 c 128,-1,12
 547 13 547 13 467 -16 c 0,13,14
 427 -31 427 -31 392 -31 c 0,15,16
 356 -31 356 -31 287 -1 c 1,17,18
 249 -17 249 -17 215 -17 c 2,19,-1
 183 -17 l 2,20,21
 63 -17 63 -17 63 10 c 0,22,23
 63 15 63 15 67 20 c 0,24,25
 88 48 88 48 185 48 c 2,26,-1
 193 48 l 2,27,28
 229 48 229 48 275 29 c 1,29,30
 304 50 304 50 344 96 c 128,-1,31
 384 142 384 142 411.5 179.5 c 128,-1,32
 439 217 439 217 485 282 c 0,33,34
 637 496 637 496 762 552 c 1,35,36
 723 686 723 686 546 686 c 0,37,38
 473 686 473 686 386.5 638 c 128,-1,39
 300 590 300 590 250 520 c 0,40,41
 183 425 183 425 183 361 c 0,42,43
 183 294 183 294 257 294 c 0,44,45
 299 294 299 294 353.5 333 c 128,-1,46
 408 372 408 372 445 425 c 0,47,48
 497 500 497 500 497 558 c 0,49,50
 497 564 497 564 503 566 c 0,51,52
 507 568 507 568 510 568 c 2,53,-1
 512 568 l 2,54,55
 518 568 518 568 520 561 c 0,56,57
 521 557 521 557 521 547 c 0,58,59
 521 489 521 489 469 415 c 0,60,61
 429 358 429 358 366.5 315 c 128,-1,62
 304 272 304 272 253 272 c 0,63,64
 195 272 195 272 165.5 299 c 128,-1,65
 136 326 136 326 136 372 c 0,66,67
 136 444 136 444 198 530 c 1,68,69
 253 609 253 609 355.5 658.5 c 128,-1,70
 458 708 458 708 550 708 c 0,71,72
 745 708 745 708 791 563 c 1,73,74
 818 571 818 571 841 571 c 0,75,76
 849 571 849 571 849 563 c 0,0,1
698 235 m 0,77,78
 771 375 771 375 771 483 c 0,79,80
 771 494 771 494 769 516 c 1,81,82
 706 464 706 464 571 272 c 1,83,84
 431 75 431 75 313 11 c 1,85,86
 358 -9 358 -9 395 -9 c 0,87,88
 428 -9 428 -9 466 5 c 0,89,90
 539 33 539 33 599 96 c 128,-1,91
 659 159 659 159 698 235 c 0,77,78
219 6 m 0,92,93
 233 6 233 6 251 14 c 1,94,95
 223 25 223 25 190 25 c 0,96,97
 130 25 130 25 120 11 c 1,98,-1
 122 11 l 1,99,100
 148 6 148 6 219 6 c 0,92,93
EndSplineSet
EndChar

StartChar: E
Encoding: 69 69 3
Width: 562
Flags: W
HStem: -8 22<168.783 303.572> 255 22<333.18 433.523> 346 22<360.104 426> 388 23<350 434.633> 444 22<526.4 597.423> 608 22<586.648 631.365> 676 32<495.906 643.256>
VStem: 45 59<59.7783 192.932> 222 23<97.2393 148.119> 272 57<406.126 499.256> 435 28<369.407 384.435> 467 50<138.868 237.573> 492 26<473.19 537.319> 681 30<550.902 642.726>
LayerCount: 2
Fore
SplineSet
626 611 m 2,0,1
 624 608 624 608 619 608 c 0,2,3
 601 608 601 608 580 593 c 1,4,5
 560 581 560 581 542 555 c 0,6,7
 518 520 518 520 518 498 c 0,8,9
 518 466 518 466 563 466 c 0,10,11
 584 466 584 466 608 484 c 0,12,13
 635 503 635 503 653 530 c 1,14,15
 681 568 681 568 681 602 c 0,16,17
 681 622 681 622 672 635 c 0,18,19
 647 676 647 676 557 676 c 0,20,21
 514 676 514 676 466 643 c 1,22,23
 426 614 426 614 385 555 c 0,24,25
 329 475 329 475 329 430 c 0,26,27
 329 423 329 423 330 419 c 0,28,29
 332 411 332 411 334 406 c 1,30,31
 364 411 364 411 385 411 c 0,32,33
 422 411 422 411 445 400 c 0,34,35
 463 391 463 391 463 380 c 0,36,37
 463 372 463 372 458 366 c 0,38,39
 451 355 451 355 437 351 c 0,40,41
 422 346 422 346 407 346 c 0,42,43
 344 346 344 346 307 374 c 1,44,45
 280 363 280 363 260 352 c 0,46,47
 204 318 204 318 166 261 c 1,48,49
 104 172 104 172 104 112 c 0,50,51
 104 96 104 96 108 84 c 0,52,53
 131 14 131 14 243 14 c 0,54,55
 296 14 296 14 352 47 c 0,56,57
 404 78 404 78 440 131 c 1,58,59
 467 167 467 167 467 198 c 0,60,61
 467 210 467 210 462 220 c 0,62,63
 443 255 443 255 370 255 c 0,64,65
 331 255 331 255 292 208 c 128,-1,66
 253 161 253 161 245 107 c 0,67,68
 245 102 245 102 240 100 c 2,69,-1
 233 97 l 1,70,-1
 229 97 l 2,71,72
 225 97 225 97 223 102 c 0,73,74
 222 103 222 103 222 106 c 0,75,76
 230 167 230 167 277.5 222 c 128,-1,77
 325 277 325 277 374 277 c 0,78,79
 467 277 467 277 502 232 c 0,80,81
 517 214 517 214 517 187 c 0,82,83
 517 155 517 155 493 121 c 0,84,85
 453 66 453 66 381 30 c 0,86,87
 306 -8 306 -8 239 -8 c 0,88,89
 100 -8 100 -8 58 74 c 0,90,91
 45 100 45 100 45 133 c 0,92,93
 45 200 45 200 96 271 c 0,94,95
 138 329 138 329 222 370 c 0,96,97
 260 388 260 388 288 395 c 1,98,99
 283 402 283 402 279 411 c 0,100,101
 272 428 272 428 272 450 c 0,102,103
 272 504 272 504 315 565 c 1,104,105
 360 626 360 626 431 666 c 0,106,107
 506 708 506 708 568 708 c 0,108,109
 667 708 667 708 699 653 c 0,110,111
 711 634 711 634 711 609 c 0,112,113
 711 568 711 568 678 520 c 1,114,115
 653 486 653 486 622 467 c 1,116,117
 588 444 588 444 559 444 c 0,118,119
 507 444 507 444 495 481 c 0,120,121
 492 490 492 490 492 499 c 0,122,123
 492 528 492 528 518 565 c 0,124,125
 536 591 536 591 567 611 c 1,126,127
 600 630 600 630 623 630 c 0,128,129
 632 630 632 630 632 622 c 0,130,131
 632 619 632 619 630 617 c 2,132,-1
 626 611 l 2,0,1
381 388 m 0,133,134
 365 388 365 388 350 385 c 1,135,136
 370 368 370 368 410 368 c 0,137,138
 421 368 421 368 426 370 c 1,139,-1
 434 376 l 2,140,141
 435 377 435 377 435 378 c 0,142,143
 435 380 435 380 429 382 c 0,144,145
 415 388 415 388 381 388 c 0,133,134
EndSplineSet
EndChar

StartChar: F
Encoding: 70 70 4
Width: 895
Flags: W
HStem: -22 22<117.005 263.334> 80 73<72.9612 149.613> 350 22<304.277 416.634> 384 22<793.965 822.911> 595 56<866.812 972.688> 672 56<540.508 742.926>
VStem: 41 22<34.4352 94.6855> 258 26<389.155 474.254> 564 50<485.946 593.641> 823 26<352.859 383.93>
LayerCount: 2
Fore
SplineSet
816 406 m 0,0,1
 842 406 842 406 848 386 c 0,2,3
 849 383 849 383 849 378 c 0,4,5
 849 363 849 363 836 345 c 0,6,7
 814 313 814 313 733 290 c 1,8,9
 721 271 721 271 721 253 c 0,10,11
 721 246 721 246 722 243 c 1,12,-1
 722 241 l 2,13,14
 722 236 722 236 717 233 c 2,15,-1
 662 211 l 2,16,17
 661 210 661 210 659 210 c 0,18,19
 656 210 656 210 655 211 c 1,20,21
 653 211 653 211 651 215 c 0,22,23
 650 216 650 216 650 218 c 128,-1,24
 650 220 650 220 651 221 c 0,25,26
 659 248 659 248 677 278 c 1,27,28
 637 271 637 271 608 270 c 1,29,30
 593 236 593 236 571 205 c 0,31,32
 506 113 506 113 400 45.5 c 128,-1,33
 294 -22 294 -22 207 -22 c 0,34,35
 137 -22 137 -22 89 -2 c 128,-1,36
 41 18 41 18 41 59 c 0,37,38
 41 88 41 88 67 124 c 0,39,40
 87 153 87 153 124 153 c 0,41,42
 157 153 157 153 157 119 c 0,43,44
 157 105 157 105 139 92.5 c 128,-1,45
 121 80 121 80 101 80 c 0,46,47
 82 80 82 80 71 95 c 1,48,49
 63 79 63 79 63 64 c 0,50,51
 63 0 63 0 211 0 c 0,52,53
 273 0 273 0 347.5 62.5 c 128,-1,54
 422 125 422 125 486 215 c 0,55,56
 490 221 490 221 520 267 c 1,57,58
 459 262 459 262 408 246 c 0,59,60
 334 223 334 223 312 191 c 0,61,62
 310 188 310 188 305 188 c 2,63,-1
 294 188 l 2,64,65
 291 188 291 188 289 189 c 0,66,67
 286 192 286 192 286 196 c 0,68,69
 286 199 286 199 287 201 c 0,70,71
 314 237 314 237 398 264 c 0,72,73
 462 285 462 285 534 290 c 1,74,75
 542 304 542 304 563.5 342 c 128,-1,76
 585 380 585 380 602 407 c 128,-1,77
 619 434 619 434 637 460 c 0,78,79
 696 544 696 544 797 606 c 0,80,81
 798 607 798 607 801 607 c 0,82,83
 808 607 808 607 809 601 c 2,84,-1
 811 591 l 2,85,86
 811 587 811 587 809 585 c 0,87,88
 742 523 742 523 689 450 c 0,89,90
 676 431 676 431 664.5 409 c 128,-1,91
 653 387 653 387 647 371.5 c 128,-1,92
 641 356 641 356 631.5 331 c 128,-1,93
 622 306 622 306 617 293 c 1,94,95
 653 295 653 295 692 302 c 1,96,-1
 704 320 l 1,97,98
 731 357 731 357 761 380 c 1,99,100
 793 406 793 406 816 406 c 0,0,1
986 649 m 1,101,102
 990 647 990 647 990 643 c 0,103,104
 990 640 990 640 988 638 c 2,105,-1
 960 599 l 2,106,107
 958 595 958 595 954 595 c 0,108,109
 887 595 887 595 789.5 633.5 c 128,-1,110
 692 672 692 672 628 672 c 0,111,112
 538 672 538 672 459 632 c 0,113,114
 371 588 371 588 323 520 c 0,115,116
 284 464 284 464 284 425 c 0,117,118
 284 416 284 416 285 412 c 0,119,120
 293 372 293 372 349 372 c 0,121,122
 400 372 400 372 453 397 c 1,123,124
 498 420 498 420 526 460 c 0,125,126
 564 513 564 513 564 557 c 0,127,128
 564 576 564 576 557 589 c 0,129,130
 556 590 556 590 556 593 c 0,131,132
 556 597 556 597 560 600 c 2,133,-1
 566 604 l 2,134,135
 570 606 570 606 571 606 c 2,136,-1
 575 605 l 1,137,138
 614 587 614 587 614 543 c 0,139,140
 614 502 614 502 578 450 c 0,141,142
 549 409 549 409 480 379 c 0,143,144
 412 350 412 350 345 350 c 0,145,146
 274 350 274 350 260 405 c 0,147,148
 258 412 258 412 258 426 c 0,149,150
 258 471 258 471 298 530 c 1,151,152
 355 611 355 611 461 670 c 0,153,154
 565 728 565 728 656 728 c 0,155,156
 722 728 722 728 820 689.5 c 128,-1,157
 918 651 918 651 981 651 c 0,158,159
 985 651 985 651 986 649 c 1,101,102
812 355 m 0,160,161
 823 370 823 370 823 377 c 1,162,163
 820 384 820 384 812 384 c 128,-1,164
 804 384 804 384 784 364 c 0,165,166
 776 356 776 356 747 316 c 1,167,168
 795 332 795 332 812 355 c 0,160,161
EndSplineSet
EndChar

StartChar: G
Encoding: 71 71 5
Width: 610
Flags: W
HStem: -22 22<146.574 291.795> 80 73<99.9612 176.613> 199 22<325.055 405.561> 280 22<124.417 248> 654 22<246.225 297.906> 694 23<619.171 686.29>
VStem: 11 48<342.13 472.618> 68 22<35.1924 94.6895> 248 63<230.148 284.667> 691 46<612.686 691.914>
LayerCount: 2
Fore
SplineSet
298 657 m 1,0,1
 295 654 295 654 291 654 c 0,2,3
 252 654 252 654 199 616 c 0,4,5
 153 582 153 582 109 520 c 1,6,7
 59 447 59 447 59 395 c 0,8,9
 59 378 59 378 65 364 c 0,10,11
 91 302 91 302 197 302 c 0,12,13
 218 302 218 302 248 307 c 1,14,15
 254 361 254 361 299 425 c 0,16,17
 384 546 384 546 487 630 c 1,18,19
 592 717 592 717 656 717 c 0,20,21
 716 717 716 717 732 679 c 0,22,23
 737 666 737 666 737 654 c 0,24,25
 737 623 737 623 713 590 c 0,26,27
 623 463 623 463 470 371 c 0,28,29
 394 325 394 325 318 301 c 1,30,31
 312 281 312 281 311 272 c 1,32,-1
 311 267 l 2,33,34
 311 221 311 221 361 221 c 0,35,36
 389 221 389 221 421.5 240 c 128,-1,37
 454 259 454 259 473 277 c 128,-1,38
 492 295 492 295 530 333 c 1,39,40
 582 397 582 397 641 431 c 0,41,42
 642 432 642 432 645 432 c 0,43,44
 652 432 652 432 653 426 c 1,45,-1
 654 424 l 1,46,-1
 655 416 l 2,47,48
 655 410 655 410 652 409 c 0,49,50
 627 394 627 394 610 372 c 128,-1,51
 593 350 593 350 577.5 319.5 c 128,-1,52
 562 289 562 289 552 275 c 0,53,54
 528 241 528 241 513.5 178 c 128,-1,55
 499 115 499 115 474 79 c 0,56,57
 439 29 439 29 373.5 3.5 c 128,-1,58
 308 -22 308 -22 243 -22 c 0,59,60
 169 -22 169 -22 118.5 -2.5 c 128,-1,61
 68 17 68 17 68 59 c 0,62,63
 68 86 68 86 94 124 c 0,64,65
 114 153 114 153 151 153 c 0,66,67
 184 153 184 153 184 119 c 0,68,69
 184 105 184 105 166 92.5 c 128,-1,70
 148 80 148 80 128 80 c 128,-1,71
 108 80 108 80 99 95 c 1,72,73
 90 77 90 77 90 63 c 0,74,75
 90 0 90 0 246 0 c 0,76,77
 279 0 279 0 320.5 26.5 c 128,-1,78
 362 53 362 53 388 89 c 0,79,80
 410 120 410 120 435.5 175.5 c 128,-1,81
 461 231 461 231 472 250 c 1,82,83
 411 199 411 199 357 199 c 0,84,85
 267 199 267 199 250 268 c 0,86,87
 248 278 248 278 248 285 c 1,88,89
 216 280 216 280 193 280 c 0,90,91
 65 280 65 280 25 354 c 0,92,93
 11 379 11 379 11 409 c 0,94,95
 11 465 11 465 57 530 c 0,96,97
 101 591 101 591 169 633 c 0,98,99
 237 676 237 676 295 676 c 0,100,101
 303 676 303 676 303 668 c 0,102,103
 303 667 303 667 298 657 c 1,0,1
384 415 m 0,104,105
 346 360 346 360 331 332 c 1,106,107
 388 354 388 354 441 388 c 0,108,109
 569 471 569 471 661 600 c 0,110,111
 691 642 691 642 691 666 c 2,112,-1
 691 671 l 1,113,114
 688 694 688 694 652 694 c 128,-1,115
 616 694 616 694 539 615 c 0,116,117
 490 565 490 565 384 415 c 0,104,105
EndSplineSet
EndChar

StartChar: H
Encoding: 72 72 6
Width: 969
Flags: W
HStem: -22 22<97.0713 215.926> -8 22<693.829 773.101> 80 73<64.9612 141.613> 374 22<643 755 866 925.106> 455 22<514.734 593.383> 608 22<439.763 494.459> 686 22<1123.44 1200.52> 697 20G<860.5 865>
VStem: 33 21<31.8928 94.5088> 257 26<237.633 250> 460 54<477.218 536.348> 497 50<533.388 607.752> 615 62<26.0219 145.705> 1214 26<589.934 674.844>
LayerCount: 2
Fore
SplineSet
920 140 m 0,0,1
 920 137 920 137 919 135 c 0,2,3
 877 76 877 76 825.5 34 c 128,-1,4
 774 -8 774 -8 730 -8 c 0,5,6
 672 -8 672 -8 643.5 19 c 128,-1,7
 615 46 615 46 615 94 c 0,8,9
 615 178 615 178 691 285 c 0,10,11
 711 314 711 314 755 374 c 1,12,-1
 695 374 l 2,13,14
 649 374 649 374 626 373 c 1,15,16
 585 317 585 317 505 205 c 0,17,18
 440 114 440 114 342.5 46 c 128,-1,19
 245 -22 245 -22 165 -22 c 0,20,21
 108 -22 108 -22 70.5 -1.5 c 128,-1,22
 33 19 33 19 33 57 c 0,23,24
 33 86 33 86 59 124 c 0,25,26
 79 153 79 153 116 153 c 0,27,28
 149 153 149 153 149 119 c 0,29,30
 149 105 149 105 131 92.5 c 128,-1,31
 113 80 113 80 93 80 c 0,32,33
 74 80 74 80 63 95 c 1,34,35
 54 76 54 76 54 61 c 0,36,37
 54 31 54 31 85.5 15.5 c 128,-1,38
 117 0 117 0 169 0 c 0,39,40
 269 0 269 0 419 215 c 0,41,42
 462 277 462 277 534 366 c 1,43,44
 357 345 357 345 283 240 c 0,45,46
 282 237 282 237 276 237 c 2,47,-1
 265 237 l 2,48,49
 257 237 257 237 257 245 c 1,50,-1
 258 250 l 1,51,52
 344 371 344 371 554 391 c 1,53,54
 578 420 578 420 628 478 c 1,55,56
 577 455 577 455 531 455 c 0,57,58
 501 455 501 455 480.5 465.5 c 128,-1,59
 460 476 460 476 460 496 c 0,60,61
 460 511 460 511 473 530 c 0,62,63
 497 564 497 564 497 585 c 0,64,65
 497 608 497 608 472 608 c 0,66,67
 446 608 446 608 420 581 c 128,-1,68
 394 554 394 554 358 503 c 0,69,70
 354 499 354 499 351 499 c 2,71,-1
 340 499 l 2,72,73
 332 499 332 499 332 508 c 0,74,75
 332 511 332 511 333 512 c 0,76,77
 415 630 415 630 476 630 c 0,78,79
 509 630 509 630 528 615.5 c 128,-1,80
 547 601 547 601 547 576 c 0,81,82
 547 552 547 552 526 520 c 0,83,84
 514 504 514 504 514 493 c 0,85,86
 514 477 514 477 534 477 c 0,87,88
 577 477 577 477 626.5 502 c 128,-1,89
 676 527 676 527 703 565 c 1,90,91
 802 662 802 662 856 714 c 0,92,93
 859 717 859 717 862 717 c 0,94,95
 868 717 868 717 870 711 c 2,96,-1
 873 703 l 1,97,98
 873 698 873 698 871 695 c 0,99,100
 760 554 760 554 643 396 c 1,101,-1
 771 396 l 1,102,103
 877 539 877 539 974.5 623.5 c 128,-1,104
 1072 708 1072 708 1169 708 c 0,105,106
 1240 708 1240 708 1240 644 c 0,107,108
 1240 590 1240 590 1191 520 c 0,109,110
 1139 447 1139 447 1052 415.5 c 128,-1,111
 965 384 965 384 849 377 c 1,112,113
 824 343 824 343 776 275 c 0,114,115
 677 134 677 134 677 65 c 0,116,117
 677 14 677 14 734 14 c 0,118,119
 769 14 769 14 811.5 51.5 c 128,-1,120
 854 89 854 89 894 145 c 0,121,122
 896 148 896 148 901 148 c 2,123,-1
 912 148 l 2,124,125
 920 148 920 148 920 140 c 0,0,1
1165 686 m 0,126,127
 1114 686 1114 686 1039 609.5 c 128,-1,128
 964 533 964 533 866 400 c 1,129,130
 1086 418 1086 418 1166 530 c 0,131,132
 1214 598 1214 598 1214 641 c 0,133,134
 1214 686 1214 686 1165 686 c 0,126,127
EndSplineSet
EndChar

StartChar: I
Encoding: 73 73 7
Width: 809
Flags: W
HStem: -17 23<117.512 253.655> 80 73<88.9612 165.613> 239 22<486.968 497> 697 20G<941 945>
VStem: 58 22<34.6575 94.546> 403 46<284.88 421.23> 782 24<401.728 494.906>
LayerCount: 2
Fore
SplineSet
649 474 m 0,0,1
 724 579 724 579 847 662 c 1,2,3
 835 658 835 658 809 650 c 0,4,5
 760 635 760 635 737.5 627.5 c 128,-1,6
 715 620 715 620 673.5 604 c 128,-1,7
 632 588 632 588 608 573 c 128,-1,8
 584 558 584 558 556 535 c 128,-1,9
 528 512 528 512 509 485 c 0,10,11
 449 401 449 401 449 341 c 0,12,13
 449 328 449 328 452 318 c 0,14,15
 463 277 463 277 511 261 c 1,16,17
 527 285 527 285 573.5 359 c 128,-1,18
 620 433 620 433 649 474 c 0,0,1
702 464 m 0,19,20
 673 423 673 423 640.5 350 c 128,-1,21
 608 277 608 277 597 257 c 1,22,23
 631 264 631 264 664 282 c 0,24,25
 714 311 714 311 745 355 c 0,26,27
 782 407 782 407 782 462 c 0,28,29
 782 470 782 470 780 486 c 0,30,31
 780 492 780 492 785 495 c 0,32,33
 786 495 786 495 788 496 c 0,34,35
 792 498 792 498 794 498 c 2,36,-1
 796 498 l 2,37,38
 802 498 802 498 804 491 c 1,39,40
 806 469 806 469 806 456 c 0,41,42
 806 396 806 396 770 345 c 0,43,44
 736 298 736 298 676 265 c 0,45,46
 631 240 631 240 584 233 c 1,47,-1
 566 205 l 2,48,49
 507 113 507 113 396.5 48 c 128,-1,50
 286 -17 286 -17 194 -17 c 0,51,52
 136 -17 136 -17 97 3 c 128,-1,53
 58 23 58 23 58 60 c 0,54,55
 58 87 58 87 83 124 c 0,56,57
 103 153 103 153 140 153 c 0,58,59
 173 153 173 153 173 119 c 0,60,61
 173 105 173 105 155 92.5 c 128,-1,62
 137 80 137 80 117 80 c 128,-1,63
 97 80 97 80 88 95 c 1,64,65
 80 80 80 80 80 64 c 0,66,67
 80 6 80 6 198 6 c 0,68,69
 261 6 261 6 340 67.5 c 128,-1,70
 419 129 419 129 480 215 c 2,71,-1
 497 239 l 1,72,73
 431 258 431 258 411 310 c 0,74,75
 403 331 403 331 403 354 c 0,76,77
 403 419 403 419 456 495 c 0,78,79
 494 549 494 549 554 584.5 c 128,-1,80
 614 620 614 620 668.5 635 c 128,-1,81
 723 650 723 650 804.5 672 c 128,-1,82
 886 694 886 694 939 716 c 0,83,84
 940 717 940 717 942 717 c 0,85,86
 948 717 948 717 950 711 c 0,87,88
 950 709 950 709 951 708 c 2,89,-1
 952 700 l 2,90,91
 952 694 952 694 949 693 c 0,92,93
 794 596 794 596 702 464 c 0,19,20
EndSplineSet
EndChar

StartChar: J
Encoding: 74 74 8
Width: 1052
Flags: W
HStem: -300 22<138.623 230.422> 240 21<675.375 683> 697 20G<1128 1132.5>
VStem: 98 20<-256.922 -183.567> 590 46<284.515 421.23> 969 24<401.728 494.906>
LayerCount: 2
Fore
SplineSet
836 474 m 0,0,1
 911 579 911 579 1034 662 c 1,2,3
 1022 658 1022 658 996 650 c 0,4,5
 947 635 947 635 924.5 627.5 c 128,-1,6
 902 620 902 620 860.5 604 c 128,-1,7
 819 588 819 588 795 573 c 128,-1,8
 771 558 771 558 743 535 c 128,-1,9
 715 512 715 512 696 485 c 0,10,11
 636 401 636 401 636 341 c 0,12,13
 636 328 636 328 639 318 c 0,14,15
 649 278 649 278 697 261 c 1,16,17
 710 282 710 282 739 327.5 c 128,-1,18
 768 373 768 373 791 407.5 c 128,-1,19
 814 442 814 442 836 474 c 0,0,1
889 464 m 0,20,21
 867 433 867 433 848.5 399.5 c 128,-1,22
 830 366 830 366 809.5 320.5 c 128,-1,23
 789 275 789 275 779 256 c 1,24,25
 813 261 813 261 851 282 c 0,26,27
 901 311 901 311 932 355 c 0,28,29
 969 407 969 407 969 462 c 0,30,31
 969 470 969 470 967 486 c 0,32,33
 967 492 967 492 972 495 c 0,34,35
 973 495 973 495 975 496 c 0,36,37
 979 498 979 498 981 498 c 2,38,-1
 983 498 l 2,39,40
 989 498 989 498 991 491 c 1,41,42
 993 469 993 469 993 456 c 0,43,44
 993 396 993 396 957 345 c 0,45,46
 923 298 923 298 863 265 c 0,47,48
 814 237 814 237 766 232 c 1,49,50
 745 194 745 194 728 170 c 0,51,52
 682 104 682 104 634 47 c 1,53,54
 788 90 788 90 828 145 c 0,55,56
 830 148 830 148 835 148 c 2,57,-1
 837 148 l 2,58,59
 846 148 846 148 846 140 c 0,60,61
 846 139 846 139 844 135 c 0,62,63
 797 68 797 68 610 18 c 1,64,65
 522 -83 522 -83 432 -161 c 0,66,67
 271 -300 271 -300 181 -300 c 0,68,69
 114 -300 114 -300 100 -249 c 1,70,71
 98 -237 98 -237 98 -230 c 0,72,73
 98 -185 98 -185 135 -134 c 0,74,75
 155 -106 155 -106 193 -83 c 128,-1,76
 231 -60 231 -60 288.5 -41.5 c 128,-1,77
 346 -23 346 -23 384 -13.5 c 128,-1,78
 422 -4 422 -4 488 11 c 0,79,80
 512 17 512 17 525 19 c 1,81,82
 576 86 576 86 642 180 c 0,83,84
 670 220 670 220 683 240 c 1,85,86
 618 257 618 257 598 310 c 0,87,88
 590 331 590 331 590 354 c 0,89,90
 590 419 590 419 643 495 c 0,91,92
 681 549 681 549 741 584.5 c 128,-1,93
 801 620 801 620 856 635 c 128,-1,94
 911 650 911 650 992 672 c 128,-1,95
 1073 694 1073 694 1126 716 c 0,96,97
 1127 717 1127 717 1129 717 c 0,98,99
 1136 717 1136 717 1137 711 c 0,100,101
 1137 709 1137 709 1138 708 c 2,102,-1
 1139 700 l 2,103,104
 1139 694 1139 694 1136 693 c 0,105,106
 981 596 981 596 889 464 c 0,20,21
972 495 m 2,107,-1
 969 493 l 2,108,109
 970 494 970 494 972 495 c 2,107,-1
184 -278 m 0,110,111
 223 -278 223 -278 270 -243.5 c 128,-1,112
 317 -209 317 -209 380 -146 c 0,113,114
 441 -85 441 -85 504 -7 c 1,115,-1
 491 -10 l 2,116,117
 425 -25 425 -25 386 -35 c 128,-1,118
 347 -45 347 -45 292.5 -62.5 c 128,-1,119
 238 -80 238 -80 203 -100 c 128,-1,120
 168 -120 168 -120 151 -144 c 0,121,122
 118 -190 118 -190 118 -226 c 0,123,124
 118 -233 118 -233 120 -241 c 0,125,126
 130 -278 130 -278 184 -278 c 0,110,111
EndSplineSet
EndChar

StartChar: K
Encoding: 75 75 9
Width: 914
Flags: W
HStem: -22 22<97.0713 215.926 644.037 693.971> 80 73<64.9612 141.613> 304 22<611.242 657.408> 368 22<637.689 675.423> 455 22<515.377 593.333> 608 22<447.444 498.363> 679 24<1130.12 1198.94> 697 20G<860 865.5>
VStem: 33 21<31.8928 94.5088> 464 50<490 537.298> 501 45<539.641 607.369> 561 53<19.3032 150.703>
LayerCount: 2
Fore
SplineSet
747 45 m 0,0,1
 800 89 800 89 838 145 c 0,2,3
 841 148 841 148 845 148 c 2,4,-1
 856 148 l 2,5,6
 865 148 865 148 865 140 c 0,7,8
 865 139 865 139 863 135 c 0,9,10
 821 75 821 75 762 29 c 1,11,12
 701 -17 701 -17 668 -17 c 0,13,14
 623 -17 623 -17 596 5.5 c 128,-1,15
 569 28 569 28 563 65 c 0,16,17
 561 74 561 74 561 93 c 0,18,19
 561 169 561 169 619 250 c 0,20,21
 647 290 647 290 658 309 c 1,22,23
 635 304 635 304 618 304 c 0,24,25
 598 304 598 304 589 312 c 0,26,27
 587 313 587 313 585 317 c 1,28,29
 575 303 575 303 547.5 264.5 c 128,-1,30
 520 226 520 226 505 205 c 0,31,32
 440 114 440 114 342.5 46 c 128,-1,33
 245 -22 245 -22 165 -22 c 0,34,35
 108 -22 108 -22 70.5 -1.5 c 128,-1,36
 33 19 33 19 33 57 c 0,37,38
 33 86 33 86 59 124 c 0,39,40
 79 153 79 153 116 153 c 0,41,42
 149 153 149 153 149 119 c 0,43,44
 149 105 149 105 131 92.5 c 128,-1,45
 113 80 113 80 93 80 c 0,46,47
 74 80 74 80 63 95 c 1,48,49
 54 76 54 76 54 61 c 0,50,51
 54 31 54 31 85.5 15.5 c 128,-1,52
 117 0 117 0 169 0 c 0,53,54
 269 0 269 0 419 215 c 0,55,56
 513 348 513 348 630 480 c 1,57,58
 575 455 575 455 530 455 c 0,59,60
 493 455 493 455 475 477 c 0,61,62
 464 490 464 490 464 504 c 128,-1,63
 464 518 464 518 473 530 c 0,64,65
 501 570 501 570 501 587 c 2,66,-1
 501 589 l 1,67,68
 499 608 499 608 472 608 c 0,69,70
 457 608 457 608 422 577 c 1,71,72
 389 546 389 546 353 496 c 0,73,74
 349 492 349 492 346 492 c 2,75,-1
 335 492 l 2,76,77
 327 492 327 492 327 500 c 0,78,79
 327 504 327 504 328 505 c 0,80,81
 362 554 362 554 406 592 c 1,82,83
 448 630 448 630 476 630 c 0,84,85
 528 630 528 630 542 597 c 0,86,87
 546 589 546 589 546 576 c 0,88,89
 546 550 546 550 525 520 c 0,90,91
 514 503 514 503 514 493 c 0,92,93
 514 492 514 492 514 490 c 2,94,-1
 515 488 l 2,95,96
 517 477 517 477 534 477 c 0,97,98
 579 477 579 477 628 503 c 0,99,100
 678 530 678 530 703 565 c 1,101,102
 802 662 802 662 856 714 c 0,103,104
 858 716 858 716 860 716 c 2,105,-1
 863 717 l 1,106,107
 868 717 868 717 870 711 c 2,108,-1
 873 700 l 2,109,110
 873 699 873 699 871 695 c 0,111,112
 745 535 745 535 629 378 c 1,113,114
 651 390 651 390 667 390 c 0,115,116
 711 390 711 390 722 357 c 1,117,118
 756 375 756 375 788 400 c 0,119,120
 881 470 881 470 960 582 c 0,121,122
 996 633 996 633 1056.5 668 c 128,-1,123
 1117 703 1117 703 1168 703 c 0,124,125
 1181 703 1181 703 1193 700 c 0,126,127
 1197 698 1197 698 1199 694 c 0,128,129
 1199 693 1199 693 1199.5 691 c 128,-1,130
 1200 689 1200 689 1200 687 c 0,131,132
 1200 679 1200 679 1192 679 c 2,133,-1
 1187 679 l 2,134,135
 1143 679 1143 679 1090 648 c 128,-1,136
 1037 617 1037 617 1006 573 c 0,137,138
 928 463 928 463 815 383 c 1,139,140
 766 350 766 350 726 332 c 1,141,142
 725 293 725 293 688 240 c 1,143,144
 617 142 617 142 614 69 c 1,145,-1
 614 66 l 2,146,147
 614 6 614 6 672 6 c 0,148,149
 701 6 701 6 747 45 c 0,0,1
639 358 m 0,150,151
 625 348 625 348 611 328 c 1,152,153
 612 326 612 326 622 326 c 0,154,155
 646 326 646 326 672 336 c 1,156,157
 674 338 674 338 674 341 c 1,158,159
 676 346 676 346 676 355 c 0,160,161
 676 368 676 368 663 368 c 0,162,163
 652 368 652 368 639 358 c 0,150,151
EndSplineSet
EndChar

StartChar: L
Encoding: 76 76 10
Width: 874
Flags: W
HStem: -17 49<423.149 637.803> -17 23<74.3906 224.312> 73 22<106.567 255.32> 336 22<437.413 551.7> 678 26<531.736 601.593> 694 23<918.86 980.361>
VStem: 12 58<11.072 53.5957> 293 56<405.446 531.785> 996 37<577.323 684.377>
LayerCount: 2
Fore
SplineSet
800 140 m 0,0,1
 800 139 800 139 798 135 c 0,2,3
 754 73 754 73 681.5 28 c 128,-1,4
 609 -17 609 -17 548 -17 c 0,5,6
 468 -17 468 -17 356 28 c 1,7,-1
 344 33 l 1,8,9
 242 -17 242 -17 160 -17 c 2,10,-1
 144 -17 l 2,11,12
 12 -17 12 -17 12 21 c 0,13,14
 12 31 12 31 23 47 c 0,15,16
 38 69 38 69 65.5 80 c 128,-1,17
 93 91 93 91 113 93 c 128,-1,18
 133 95 133 95 166 95 c 2,19,-1
 172 95 l 2,20,21
 241 95 241 95 328 75 c 1,22,23
 408 133 408 133 466 215 c 0,24,25
 502 267 502 267 552 337 c 1,26,27
 542 336 542 336 520 336 c 0,28,29
 421 336 421 336 357 368 c 128,-1,30
 293 400 293 400 293 461 c 0,31,32
 293 508 293 508 333 565 c 0,33,34
 374 623 374 623 443.5 663.5 c 128,-1,35
 513 704 513 704 571 704 c 0,36,37
 589 704 589 704 602 700 c 1,38,-1
 604 698 l 1,39,40
 608 696 608 696 608 692 c 0,41,42
 608 689 608 689 606 687 c 2,43,-1
 602 681 l 2,44,45
 600 678 600 678 596 678 c 0,46,47
 545 678 545 678 483.5 642 c 128,-1,48
 422 606 422 606 386 555 c 0,49,50
 349 504 349 504 349 461 c 0,51,52
 349 412 349 412 397 385 c 128,-1,53
 445 358 445 358 524 358 c 0,54,55
 539 358 539 358 569 360 c 1,56,57
 624 436 624 436 670 493 c 128,-1,58
 716 550 716 550 767.5 604.5 c 128,-1,59
 819 659 819 659 864 688 c 128,-1,60
 909 717 909 717 944 717 c 0,61,62
 988 717 988 717 1010.5 696.5 c 128,-1,63
 1033 676 1033 676 1033 640 c 0,64,65
 1033 586 1033 586 987 520 c 0,66,67
 889 380 889 380 651 345 c 1,68,-1
 551 205 l 2,69,70
 490 120 490 120 390 59 c 1,71,72
 500 32 500 32 571 32 c 0,73,74
 620 32 620 32 680 65 c 128,-1,75
 740 98 740 98 774 145 c 0,76,77
 776 148 776 148 780 148 c 2,78,-1
 792 148 l 2,79,80
 800 148 800 148 800 140 c 0,0,1
164 6 m 0,81,82
 222 6 222 6 294 51 c 1,83,84
 230 73 230 73 168 73 c 0,85,86
 100 73 100 73 75 37 c 0,87,88
 70 31 70 31 70 24 c 0,89,90
 70 6 70 6 164 6 c 0,81,82
940 694 m 0,91,92
 902 694 902 694 671 373 c 1,93,94
 864 410 864 410 949 530 c 0,95,96
 996 597 996 597 996 643 c 0,97,98
 996 694 996 694 940 694 c 0,91,92
EndSplineSet
EndChar

StartChar: M
Encoding: 77 77 11
Width: 1080
Flags: W
HStem: -36 36<452.5 502.381> -28 22<787.346 843.696> -8 22<77.1167 177.562> 47 77<66.188 129.197> 698 20G<1197 1210>
VStem: 29 37<31.1575 49.6882> 430 55<0.0012207 62.6445> 727 59<-5.96301 87.1239>
LayerCount: 2
Fore
SplineSet
124 14 m 2,0,-1
 133 14 l 1,1,2
 175 16 175 16 219.5 46.5 c 128,-1,3
 264 77 264 77 293 109.5 c 128,-1,4
 322 142 322 142 379.5 213 c 128,-1,5
 437 284 437 284 469 321 c 0,6,7
 542 403 542 403 713 531.5 c 128,-1,8
 884 660 884 660 944 716 c 0,9,10
 946 719 946 719 949 719 c 2,11,-1
 953 718 l 2,12,13
 954 717 954 717 957.5 715.5 c 128,-1,14
 961 714 961 714 962 713 c 0,15,16
 966 709 966 709 966 706 c 0,17,18
 966 705 966 705 964 701 c 2,19,-1
 847 555 l 1,20,-1
 572 170 l 2,21,22
 520 98 520 98 497 42 c 0,23,24
 485 14 485 14 485 5 c 0,25,26
 485 0 485 0 488 0 c 0,27,28
 503 0 503 0 774 320 c 0,29,30
 841 399 841 399 995 534 c 0,31,32
 999 538 999 538 1008.5 548.5 c 128,-1,33
 1018 559 1018 559 1024 565 c 2,34,-1
 1193 716 l 2,35,36
 1195 718 1195 718 1199 718 c 1,37,-1
 1210 715 l 1,38,-1
 1213 713 l 2,39,40
 1215 711 1215 711 1215 707 c 128,-1,41
 1215 703 1215 703 1214 702 c 2,42,-1
 1096 555 l 1,43,44
 1051 491 1051 491 977.5 363.5 c 128,-1,45
 904 236 904 236 857 171 c 1,46,47
 803 94 803 94 790 39 c 0,48,49
 786 26 786 26 786 14 c 0,50,51
 786 -6 786 -6 803 -6 c 0,52,53
 838 -6 838 -6 893 35 c 0,54,55
 949 77 949 77 991 136 c 1,56,57
 992 140 992 140 998 140 c 2,58,-1
 1009 140 l 2,59,60
 1012 140 1012 140 1013 138 c 1,61,62
 1017 137 1017 137 1017 132 c 0,63,64
 1017 129 1017 129 1015 127 c 0,65,66
 972 65 972 65 907 19 c 1,67,68
 843 -28 843 -28 799 -28 c 0,69,70
 767 -28 767 -28 749 -10 c 128,-1,71
 731 8 731 8 728 37 c 0,72,73
 727 42 727 42 727 53 c 0,74,75
 727 117 727 117 772 180 c 0,76,77
 803 223 803 223 834.5 272 c 128,-1,78
 866 321 866 321 902.5 380 c 128,-1,79
 939 439 939 439 961 472 c 1,80,81
 856 378 856 378 798 310 c 0,82,83
 792 304 792 304 773 280 c 1,84,85
 505 -36 505 -36 475 -36 c 0,86,87
 430 -36 430 -36 430 21 c 2,88,-1
 430 35 l 1,89,90
 437 109 437 109 486 180 c 1,91,92
 532 244 532 244 625 363 c 128,-1,93
 718 482 718 482 755 533 c 1,94,95
 691 485 691 485 657.5 459.5 c 128,-1,96
 624 434 624 434 575.5 391 c 128,-1,97
 527 348 527 348 493 309 c 0,98,99
 471 284 471 284 426 229.5 c 128,-1,100
 381 175 381 175 351 141.5 c 128,-1,101
 321 108 321 108 280 69 c 128,-1,102
 239 30 239 30 198 11 c 128,-1,103
 157 -8 157 -8 117 -8 c 0,104,105
 80 -8 80 -8 54.5 7 c 128,-1,106
 29 22 29 22 29 49 c 0,107,108
 29 71 29 71 47 96 c 1,109,110
 54 103 54 103 56 103 c 1,111,112
 72 124 72 124 103 124 c 0,113,114
 138 124 138 124 138 88 c 0,115,116
 138 73 138 73 118.5 60 c 128,-1,117
 99 47 99 47 80 47 c 0,118,119
 72 47 72 47 66 50 c 1,120,-1
 66 46 l 2,121,122
 66 36 66 36 69 31 c 1,123,124
 86 14 86 14 124 14 c 2,0,-1
EndSplineSet
EndChar

StartChar: N
Encoding: 78 78 12
Width: 902
Flags: W
HStem: -22 22<97.0713 221.319> -8 21G<645 659.5> 80 73<64.9612 141.258>
VStem: 33 21<31.8928 94.5088> 638 27<-7.0002 17.1025> 687 77<218.967 468> 690 82<218.967 462.641>
LayerCount: 2
Fore
SplineSet
789 700 m 2,0,-1
 800 700 l 2,1,2
 808 700 808 700 808 692 c 0,3,4
 808 689 808 689 807 688 c 0,5,6
 764 624 764 624 764 495 c 0,7,8
 764 457 764 457 768 406.5 c 128,-1,9
 772 356 772 356 772 350 c 2,10,-1
 772 334 l 2,11,12
 772 280 772 280 755 217 c 1,13,14
 829 337 829 337 914 460 c 0,15,16
 979 552 979 552 1046 618.5 c 128,-1,17
 1113 685 1113 685 1195 719 c 1,18,-1
 1199 719 l 2,19,20
 1206 719 1206 719 1206 712 c 2,21,-1
 1203 688 l 2,22,23
 1203 684 1203 684 1198 681 c 0,24,25
 1062 625 1062 625 938 450 c 0,26,27
 777 221 777 221 665 -4 c 0,28,29
 662 -8 662 -8 657 -8 c 2,30,-1
 646 -8 l 2,31,32
 644 -8 644 -8 643 -7 c 0,33,34
 638 -5 638 -5 638 0 c 0,35,36
 638 3 638 3 639 4 c 0,37,38
 690 101 690 101 690 214 c 0,39,40
 690 241 690 241 687 289.5 c 128,-1,41
 684 338 684 338 683 350 c 1,42,-1
 687 461 l 1,43,-1
 688 468 l 2,44,45
 690 475 690 475 693.5 494 c 128,-1,46
 697 513 697 513 702 535 c 1,47,48
 565 339 565 339 466 205 c 0,49,50
 397 111 397 111 316 44.5 c 128,-1,51
 235 -22 235 -22 165 -22 c 0,52,53
 108 -22 108 -22 70.5 -1.5 c 128,-1,54
 33 19 33 19 33 57 c 0,55,56
 33 86 33 86 59 124 c 0,57,58
 79 153 79 153 116 153 c 0,59,60
 149 153 149 153 149 119 c 0,61,62
 149 105 149 105 130.5 92.5 c 128,-1,63
 112 80 112 80 92 80 c 128,-1,64
 72 80 72 80 63 95 c 1,65,66
 54 76 54 76 54 61 c 0,67,68
 54 31 54 31 85.5 15.5 c 128,-1,69
 117 0 117 0 169 0 c 0,70,71
 231 0 231 0 304.5 62.5 c 128,-1,72
 378 125 378 125 442 215 c 0,73,74
 554 375 554 375 782 697 c 0,75,76
 785 700 785 700 789 700 c 2,0,-1
EndSplineSet
EndChar

StartChar: O
Encoding: 79 79 13
Width: 738
Flags: W
HStem: -8 22<213.363 320.208> 549 22<512.978 600.387> 686 22<566.413 704.057>
VStem: 95 63<63.8518 216.797> 776 27<551.254 638.79>
LayerCount: 2
Fore
SplineSet
522 493 m 2,0,-1
 527 499 l 1,1,2
 531 501 531 501 533 501 c 0,3,4
 536 501 536 501 537 500 c 0,5,6
 541 498 541 498 555 491 c 128,-1,7
 569 484 569 484 575 481.5 c 128,-1,8
 581 479 581 479 593 474.5 c 128,-1,9
 605 470 605 470 615.5 468.5 c 128,-1,10
 626 467 626 467 637 466 c 1,11,12
 635 549 635 549 550 549 c 0,13,14
 512 549 512 549 445 491 c 0,15,16
 382 436 382 436 316 345 c 1,17,18
 244 242 244 242 228 121 c 1,19,20
 226 116 226 116 223 114 c 2,21,-1
 209 109 l 2,22,23
 208 108 208 108 205 108 c 0,24,25
 200 108 200 108 198 113 c 1,26,-1
 198 117 l 1,27,28
 214 244 214 244 292 355 c 0,29,30
 356 445 356 445 430 507 c 0,31,32
 508 571 508 571 554 571 c 0,33,34
 609 571 609 571 640.5 544.5 c 128,-1,35
 672 518 672 518 678 473 c 1,36,37
 687 475 687 475 701 484 c 0,38,39
 729 500 729 500 750 530 c 0,40,41
 776 568 776 568 776 599 c 0,42,43
 776 623 776 623 762 640 c 0,44,45
 724 686 724 686 619 686 c 0,46,47
 554 686 554 686 460 608 c 1,48,49
 383 546 383 546 291 415 c 0,50,51
 162 233 162 233 158 126 c 1,52,-1
 158 121 l 2,53,54
 158 72 158 72 186.5 43 c 128,-1,55
 215 14 215 14 271 14 c 0,56,57
 323 14 323 14 396 71 c 0,58,59
 463 123 463 123 527 215 c 1,60,61
 627 354 627 354 636 444 c 1,62,63
 586 445 586 445 524 480 c 0,64,65
 519 482 519 482 519 487 c 0,66,67
 519 490 519 490 522 493 c 2,0,-1
714 466 m 0,68,69
 693 454 693 454 679 451 c 1,70,-1
 679 448 l 2,71,72
 679 345 679 345 580 205 c 0,73,74
 518 117 518 117 427 55 c 1,75,76
 337 -8 337 -8 267 -8 c 0,77,78
 193 -8 193 -8 149 27 c 128,-1,79
 105 62 105 62 97 122 c 0,80,81
 95 140 95 140 95 150 c 0,82,83
 95 266 95 266 205 425 c 1,84,85
 288 542 288 542 410 625 c 0,86,87
 533 708 533 708 623 708 c 0,88,89
 740 708 740 708 783 654 c 1,90,91
 803 631 803 631 803 598 c 0,92,93
 803 559 803 559 775 520 c 1,94,95
 750 487 750 487 714 466 c 0,68,69
EndSplineSet
EndChar

StartChar: P
Encoding: 80 80 14
Width: 1013
Flags: W
HStem: -22 22<162.862 295.904> 80 73<130.314 202.749> 269 22<277.632 373.812 719 800.018> 423 22<655.33 686.906> 694 23<614.747 818.72>
VStem: 94 29<26.3307 88.3907> 225 26<314.228 412.24> 586 28<319.208 382.326> 609 26<536.924 626.906> 966 65<450.433 599.399>
LayerCount: 2
Fore
SplineSet
471 652 m 0,0,1
 597 717 597 717 710 717 c 0,2,3
 869 717 869 717 955 657 c 1,4,5
 978 674 978 674 1018 699 c 0,6,7
 1019 700 1019 700 1022 700 c 0,8,9
 1029 700 1029 700 1030 696 c 2,10,-1
 1033 684 l 2,11,12
 1033 681 1033 681 1029 677 c 1,13,14
 1010 664 1010 664 982 635 c 1,15,16
 988 629 988 629 996 619 c 0,17,18
 1031 576 1031 576 1031 521 c 0,19,20
 1031 454 1031 454 978 380 c 0,21,22
 946 334 946 334 875 301 c 0,23,24
 805 269 805 269 737 269 c 0,25,26
 715 269 715 269 704 270 c 1,27,-1
 683 240 l 2,28,29
 606 131 606 131 472.5 54.5 c 128,-1,30
 339 -22 339 -22 227 -22 c 0,31,32
 169 -22 169 -22 131.5 -1.5 c 128,-1,33
 94 19 94 19 94 57 c 0,34,35
 94 86 94 86 120 124 c 0,36,37
 140 153 140 153 177 153 c 0,38,39
 210 153 210 153 210 119 c 0,40,41
 210 105 210 105 192.5 92.5 c 128,-1,42
 175 80 175 80 155 80 c 0,43,44
 140 80 140 80 130 89 c 1,45,46
 123 74 123 74 123 60 c 0,47,48
 123 31 123 31 152.5 15.5 c 128,-1,49
 182 0 182 0 231 0 c 0,50,51
 314 0 314 0 419.5 74.5 c 128,-1,52
 525 149 525 149 597 250 c 0,53,54
 603 258 603 258 613.5 273 c 128,-1,55
 624 288 624 288 626 291 c 1,56,57
 617 295 617 295 609 302 c 0,58,59
 586 321 586 321 586 347 c 0,60,61
 586 367 586 367 602 390 c 0,62,63
 618 412 618 412 641 428 c 1,64,65
 663 445 663 445 684 445 c 0,66,67
 687 445 687 445 689 444 c 0,68,69
 692 441 692 441 692 437 c 128,-1,70
 692 433 692 433 691 432 c 2,71,-1
 687 426 l 2,72,73
 684 423 684 423 680 423 c 0,74,75
 669 423 669 423 655 412 c 0,76,77
 640 400 640 400 626 380 c 0,78,79
 614 362 614 362 614 348 c 0,80,81
 614 330 614 330 629 318 c 0,82,83
 638 312 638 312 640 311 c 1,84,85
 797 530 797 530 924 633 c 1,86,87
 857 694 857 694 706 694 c 0,88,89
 598 694 598 694 482 634 c 0,90,91
 367 574 367 574 304 485 c 1,92,93
 251 408 251 408 251 356 c 0,94,95
 251 348 251 348 252 344 c 0,96,97
 259 291 259 291 326 291 c 0,98,99
 372 291 372 291 439 339 c 0,100,101
 501 384 501 384 554 460 c 1,102,103
 609 537 609 537 609 601 c 0,104,105
 609 613 609 613 608 618 c 1,106,107
 608 624 608 624 613 627 c 0,108,109
 614 627 614 627 616 628 c 0,110,111
 620 630 620 630 622 630 c 2,112,-1
 623 630 l 2,113,114
 631 630 631 630 631 623 c 0,115,116
 635 593 635 593 635 576 c 0,117,118
 635 509 635 509 593 450 c 0,119,120
 540 376 540 376 461 322 c 0,121,122
 382 269 382 269 322 269 c 0,123,124
 282 269 282 269 256.5 287.5 c 128,-1,125
 231 306 231 306 226 338 c 0,126,127
 225 344 225 344 225 356 c 0,128,129
 225 418 225 418 280 495 c 0,130,131
 346 588 346 588 471 652 c 0,0,1
741 291 m 0,132,133
 789 291 789 291 837 319 c 0,134,135
 876 342 876 342 909 390 c 0,136,137
 966 470 966 470 966 539 c 0,138,139
 966 574 966 574 951 600 c 1,140,141
 880 518 880 518 719 292 c 1,142,143
 726 291 726 291 741 291 c 0,132,133
EndSplineSet
EndChar

StartChar: Q
Encoding: 81 81 15
Width: 883
Flags: W
HStem: -17 43<485.091 661.214> -17 23<122.44 280.307> 84 56<138 306.029> 294 22<341.078 452.32> 694 23<595.614 741.941>
VStem: 54 40<21.4873 81.1136> 270 45<330 456.371> 620 48<451.945 575.802> 816 68<485.264 633.149>
LayerCount: 2
Fore
SplineSet
209 140 m 0,0,1
 248 140 248 140 286 130.5 c 128,-1,2
 324 121 324 121 346.5 111.5 c 128,-1,3
 369 102 369 102 406 83 c 2,4,-1
 421 75 l 1,5,6
 438 85 438 85 472 107 c 0,7,8
 609 198 609 198 720 355 c 0,9,10
 816 491 816 491 816 577 c 0,11,12
 816 585 816 585 814 599 c 0,13,14
 806 644 806 644 769 669 c 128,-1,15
 732 694 732 694 669 694 c 0,16,17
 593 694 593 694 509 644 c 0,18,19
 430 598 430 598 376 520 c 1,20,21
 315 436 315 436 315 380 c 2,22,-1
 315 372 l 1,23,24
 320 316 320 316 390 316 c 0,25,26
 441 316 441 316 497 347 c 0,27,28
 547 375 547 375 581 425 c 1,29,30
 620 480 620 480 620 527 c 0,31,32
 620 566 620 566 595 589 c 1,33,-1
 593 592 l 1,34,-1
 593 594 l 2,35,36
 593 600 593 600 598 603 c 1,37,-1
 615 609 l 2,38,39
 618 609 618 609 620 607 c 0,40,41
 668 561 668 561 668 507 c 0,42,43
 668 463 668 463 634 415 c 0,44,45
 599 367 599 367 526 329 c 1,46,47
 453 294 453 294 386 294 c 0,48,49
 291 294 291 294 273 366 c 0,50,51
 270 380 270 380 270 394 c 0,52,53
 270 455 270 455 323 530 c 0,54,55
 380 609 380 609 480 662 c 0,56,57
 584 717 584 717 673 717 c 0,58,59
 750 717 750 717 803 688.5 c 128,-1,60
 856 660 856 660 875 606 c 0,61,62
 884 579 884 579 884 548 c 0,63,64
 884 455 884 455 806 345 c 0,65,66
 701 196 701 196 521 90 c 0,67,68
 491 72 491 72 461 57 c 1,69,70
 530 26 530 26 600 26 c 0,71,72
 648 26 648 26 705 60 c 0,73,74
 766 97 766 97 799 145 c 0,75,76
 802 148 802 148 806 148 c 2,77,-1
 817 148 l 2,78,79
 825 148 825 148 825 140 c 0,80,81
 825 137 825 137 824 135 c 0,82,83
 785 78 785 78 710 31 c 0,84,85
 634 -17 634 -17 582 -17 c 0,86,87
 500 -17 500 -17 395 27 c 1,88,89
 283 -17 283 -17 194 -17 c 0,90,91
 114 -17 114 -17 77 12 c 0,92,93
 54 30 54 30 54 53 c 0,94,95
 54 70 54 70 67 89 c 1,96,97
 83 110 83 110 124 125 c 0,98,99
 166 140 166 140 209 140 c 0,0,1
127 86 m 2,100,101
 108 84 108 84 105 79 c 0,102,103
 94 64 94 64 94 50 c 128,-1,104
 94 36 94 36 104 28 c 0,105,106
 130 6 130 6 198 6 c 0,107,108
 270 6 270 6 357 44 c 1,109,110
 258 84 258 84 182 84 c 1,111,-1
 138 87 l 1,112,-1
 127 86 l 2,100,101
EndSplineSet
EndChar

StartChar: R
Encoding: 82 82 16
Width: 850
Flags: W
HStem: -11 22<67.9297 192.351 562.659 643.271> 81 72<33.283 106.502> 266 22<179.182 263.802> 342 23<589 611> 694 23<516.592 716.166>
VStem: -2 30<35.7207 88.438> 126 26<311.648 409.826> 465 31<510.388 568.906> 482 74<20.8527 91.7614> 630 62<267.916 321.625> 835 52<489.661 626.032>
LayerCount: 2
Fore
SplineSet
612 365 m 2,0,1
 637 365 637 365 657 355 c 1,2,3
 677 363 677 363 696 373 c 0,4,5
 754 403 754 403 795 460 c 0,6,7
 835 517 835 517 835 566 c 0,8,9
 835 605 835 605 811 632 c 1,10,11
 701 547 701 547 589 365 c 1,12,-1
 612 365 l 2,0,1
494 343 m 1,13,14
 494 347 494 347 499 355 c 0,15,16
 502 358 502 358 506 358 c 1,17,18
 649 548 649 548 791 650 c 1,19,20
 731 694 731 694 608 694 c 0,21,22
 499 694 499 694 385 634 c 0,23,24
 270 574 270 574 207 485 c 0,25,26
 152 406 152 406 152 354 c 1,27,-1
 153 342 l 1,28,29
 160 288 160 288 226 288 c 0,30,31
 255 288 255 288 292 317 c 0,32,33
 322 340 322 340 357 390 c 0,34,35
 364 400 364 400 395.5 437.5 c 128,-1,36
 427 475 427 475 446 504 c 128,-1,37
 465 533 465 533 465 552 c 2,38,-1
 465 558 l 2,39,40
 465 563 465 563 470 565 c 2,41,-1
 486 571 l 1,42,43
 493 571 493 571 495 564 c 1,44,-1
 496 553 l 1,45,46
 496 529 496 529 480.5 495 c 128,-1,47
 465 461 465 461 452 441 c 128,-1,48
 439 421 439 421 410 380 c 0,49,50
 376 332 376 332 322 300 c 1,51,52
 267 266 267 266 222 266 c 0,53,54
 182 266 182 266 157 285 c 128,-1,55
 132 304 132 304 127 337 c 0,56,57
 126 343 126 343 126 354 c 0,58,59
 126 417 126 417 182 495 c 0,60,61
 247 586 247 586 373 652 c 0,62,63
 499 717 499 717 612 717 c 0,64,65
 745 717 745 717 819 670 c 1,66,67
 828 676 828 676 844.5 686 c 128,-1,68
 861 696 861 696 866 699 c 0,69,70
 867 700 867 700 869 700 c 0,71,72
 876 700 876 700 878 694 c 2,73,-1
 880 683 l 2,74,75
 880 680 880 680 876 677 c 2,76,-1
 840 654 l 1,77,-1
 854 640 l 1,78,79
 887 604 887 604 887 557 c 0,80,81
 887 506 887 506 847 450 c 0,82,83
 807 395 807 395 724 354 c 0,84,85
 712 349 712 349 680 337 c 1,86,87
 686 329 686 329 690 315 c 0,88,89
 692 309 692 309 692 296 c 0,90,91
 692 253 692 253 658 205 c 2,92,-1
 583 100 l 1,93,94
 556 60 556 60 556 33 c 0,95,96
 556 31 556 31 556.5 29 c 128,-1,97
 557 27 557 27 557 26 c 0,98,99
 559 16 559 16 566 8 c 1,100,101
 576 6 576 6 597 6 c 128,-1,102
 618 6 618 6 644 21 c 1,103,104
 662 33 662 33 672 42 c 0,105,106
 724 84 724 84 766 145 c 0,107,108
 769 148 769 148 773 148 c 2,109,-1
 784 148 l 2,110,111
 788 148 788 148 789 147 c 0,112,113
 793 143 793 143 793 140 c 0,114,115
 793 139 793 139 791 135 c 0,116,117
 747 75 747 75 691 32 c 0,118,119
 672 17 672 17 653 6 c 1,120,121
 618 -17 618 -17 593 -17 c 0,122,123
 575 -17 575 -17 559 -8 c 1,124,125
 520 0 520 0 502 23 c 1,126,127
 482 45 482 45 482 68 c 0,128,129
 482 90 482 90 497 110 c 2,130,-1
 578 223 l 2,131,132
 624 286 624 286 629 311 c 0,133,134
 630 315 630 315 630 322 c 1,135,136
 596 315 596 315 562 315 c 1,137,138
 549 297 549 297 525 260 c 128,-1,139
 501 223 501 223 488 205 c 0,140,141
 426 117 426 117 324 53 c 128,-1,142
 222 -11 222 -11 137 -11 c 0,143,144
 78 -11 78 -11 38 8.5 c 128,-1,145
 -2 28 -2 28 -2 64 c 0,146,147
 -2 90 -2 90 22 124 c 0,148,149
 42 153 42 153 80 153 c 0,150,151
 113 153 113 153 113 119 c 0,152,153
 113 105 113 105 95.5 93 c 128,-1,154
 78 81 78 81 58 81 c 0,155,156
 42 81 42 81 33 89 c 1,157,158
 28 76 28 76 28 67 c 0,159,160
 28 40 28 40 59 25.5 c 128,-1,161
 90 11 90 11 141 11 c 0,162,163
 200 11 200 11 271 70.5 c 128,-1,164
 342 130 342 130 403 215 c 0,165,166
 432 257 432 257 494 343 c 1,13,14
608 342 m 1,167,-1
 575 342 l 1,168,169
 574 341 574 341 572 337 c 1,170,171
 596 339 596 339 611 342 c 1,172,-1
 608 342 l 1,167,-1
EndSplineSet
EndChar

StartChar: S
Encoding: 83 83 17
Width: 868
Flags: W
HStem: -22 22<96.9584 229.864> 80 73<63.981 141.258> 315 22<466.724 558> 643 22<575.657 683.365> 686 22<921.225 989.886>
VStem: 32 22<31.8807 94.5088> 302 40<401.433 512.339> 993 25<609.734 683.72>
LayerCount: 2
Fore
SplineSet
675 665 m 0,0,1
 684 665 684 665 684 657 c 0,2,3
 684 654 684 654 682 652 c 2,4,-1
 678 646 l 2,5,6
 676 643 676 643 671 643 c 0,7,8
 581 643 581 643 492 606 c 1,9,10
 404 571 404 571 367 520 c 0,11,12
 342 485 342 485 342 453 c 0,13,14
 342 419 342 419 371 392 c 0,15,16
 433 337 433 337 574 337 c 1,17,18
 642 419 642 419 680 474 c 0,19,20
 749 572 749 572 827 640 c 128,-1,21
 905 708 905 708 975 708 c 0,22,23
 1018 708 1018 708 1018 661 c 0,24,25
 1018 652 1018 652 1017 647 c 0,26,27
 1011 593 1011 593 960 520 c 0,28,29
 902 437 902 437 785 376 c 0,30,31
 719 342 719 342 661 327 c 1,32,33
 612 265 612 265 569 205 c 0,34,35
 501 110 501 110 383 44 c 128,-1,36
 265 -22 265 -22 165 -22 c 0,37,38
 108 -22 108 -22 70 -1.5 c 128,-1,39
 32 19 32 19 32 57 c 0,40,41
 32 86 32 86 58 124 c 0,42,43
 78 153 78 153 116 153 c 0,44,45
 149 153 149 153 149 119 c 0,46,47
 149 105 149 105 130.5 92.5 c 128,-1,48
 112 80 112 80 92 80 c 128,-1,49
 72 80 72 80 63 95 c 1,50,51
 54 76 54 76 54 61 c 0,52,53
 54 32 54 32 85.5 16 c 128,-1,54
 117 0 117 0 169 0 c 0,55,56
 241 0 241 0 331 64 c 128,-1,57
 421 128 421 128 483 215 c 0,58,59
 528 278 528 278 558 315 c 1,60,61
 412 317 412 317 343 377 c 0,62,63
 302 413 302 413 302 456 c 0,64,65
 302 492 302 492 329 530 c 0,66,67
 368 585 368 585 473 625 c 1,68,69
 574 665 574 665 675 665 c 0,0,1
971 686 m 0,70,71
 946 686 946 686 927 678 c 128,-1,72
 908 670 908 670 889.5 648 c 128,-1,73
 871 626 871 626 857 605 c 128,-1,74
 843 584 843 584 816.5 541 c 128,-1,75
 790 498 790 498 766 464 c 0,76,77
 740 428 740 428 684 356 c 1,78,79
 726 369 726 369 773 394 c 0,80,81
 879 449 879 449 935 530 c 1,82,83
 983 596 983 596 992 646 c 0,84,85
 993 651 993 651 993 660 c 0,86,87
 993 686 993 686 971 686 c 0,70,71
671 643 m 1,88,-1
 671 643 l 1,88,-1
EndSplineSet
EndChar

StartChar: T
Encoding: 84 84 18
Width: 747
Flags: W
HStem: -22 22<170.748 324.375> 80 73<125.961 202.613> 350 22<310.277 422.634> 595 56<872.812 978.688> 672 56<546.508 748.926>
VStem: 94 22<35.4736 94.7203> 264 26<389.155 474.062> 570 50<485.946 593.156>
LayerCount: 2
Fore
SplineSet
547 215 m 0,0,1
 576 257 576 257 622.5 338 c 128,-1,2
 669 419 669 419 698 460 c 0,3,4
 756 542 756 542 858 606 c 0,5,6
 859 607 859 607 862 607 c 0,7,8
 870 607 870 607 871 601 c 2,9,-1
 873 591 l 2,10,11
 873 586 873 586 870 585 c 1,12,13
 798 518 798 518 751 450 c 0,14,15
 721 408 721 408 692 328 c 128,-1,16
 663 248 663 248 633 205 c 0,17,18
 567 112 567 112 461 45 c 128,-1,19
 355 -22 355 -22 268 -22 c 0,20,21
 194 -22 194 -22 144 -2.5 c 128,-1,22
 94 17 94 17 94 59 c 0,23,24
 94 86 94 86 120 124 c 0,25,26
 140 153 140 153 177 153 c 0,27,28
 210 153 210 153 210 119 c 0,29,30
 210 105 210 105 192 92.5 c 128,-1,31
 174 80 174 80 154 80 c 128,-1,32
 134 80 134 80 124 95 c 1,33,34
 116 79 116 79 116 64 c 0,35,36
 116 0 116 0 272 0 c 0,37,38
 334 0 334 0 409 62.5 c 128,-1,39
 484 125 484 125 547 215 c 0,0,1
995 643 m 0,40,41
 995 639 995 639 994 638 c 2,42,-1
 966 599 l 2,43,44
 964 595 964 595 960 595 c 0,45,46
 893 595 893 595 795.5 633.5 c 128,-1,47
 698 672 698 672 634 672 c 0,48,49
 544 672 544 672 465 632 c 0,50,51
 377 588 377 588 329 520 c 0,52,53
 290 464 290 464 290 424 c 0,54,55
 290 416 290 416 291 412 c 0,56,57
 299 372 299 372 355 372 c 0,58,59
 406 372 406 372 459 397 c 1,60,61
 504 420 504 420 532 460 c 0,62,63
 570 513 570 513 570 557 c 0,64,65
 570 576 570 576 563 589 c 0,66,67
 562 590 562 590 562 592 c 0,68,69
 562 596 562 596 566 600 c 1,70,-1
 572 604 l 2,71,72
 576 606 576 606 577 606 c 2,73,-1
 581 605 l 1,74,75
 620 587 620 587 620 543 c 0,76,77
 620 502 620 502 584 450 c 0,78,79
 555 409 555 409 486 379 c 0,80,81
 418 350 418 350 351 350 c 0,82,83
 280 350 280 350 266 405 c 1,84,85
 264 417 264 417 264 425 c 0,86,87
 264 471 264 471 304 530 c 1,88,89
 361 611 361 611 467 670 c 0,90,91
 571 728 571 728 662 728 c 0,92,93
 728 728 728 728 826 689.5 c 128,-1,94
 924 651 924 651 987 651 c 0,95,96
 995 651 995 651 995 643 c 0,40,41
EndSplineSet
EndChar

StartChar: U
Encoding: 85 85 19
Width: 800
Flags: W
HStem: -17 23<297.338 352.128 499.5 576.781> 301 22<99.0664 191.757> 694 23<397.685 524.898>
VStem: 54 25<341.058 426.504> 243 54<6.39429 78.2971> 367 30<531.094 602.937> 469 54<35 66.6475> 562 55<529.298 667.339>
LayerCount: 2
Fore
SplineSet
288 180 m 1,0,-1
 478 425 l 2,1,2
 515 473 515 473 538.5 524.5 c 128,-1,3
 562 576 562 576 562 614 c 2,4,-1
 562 620 l 1,5,6
 560 655 560 655 537 674.5 c 128,-1,7
 514 694 514 694 471 694 c 0,8,9
 387 694 387 694 287 634 c 0,10,11
 188 574 188 574 125 485 c 0,12,13
 79 420 79 420 79 376 c 1,14,-1
 80 367 l 1,15,16
 87 323 87 323 141 323 c 0,17,18
 181 323 181 323 227 352 c 0,19,20
 270 380 270 380 300 425 c 1,21,22
 355 503 355 503 367 596 c 1,23,24
 369 601 369 601 372 603 c 2,25,-1
 381 606 l 1,26,27
 385 609 385 609 390 609 c 1,28,29
 397 607 397 607 397 601 c 2,30,-1
 397 600 l 2,31,32
 397 512 397 512 389.5 482.5 c 128,-1,33
 382 453 382 453 353 415 c 0,34,35
 318 368 318 368 256 334 c 0,36,37
 194 301 194 301 137 301 c 0,38,39
 103 301 103 301 81.5 317 c 128,-1,40
 60 333 60 333 55 361 c 0,41,42
 54 366 54 366 54 377 c 0,43,44
 54 428 54 428 100 495 c 1,45,46
 166 587 166 587 275 652 c 128,-1,47
 384 717 384 717 475 717 c 0,48,49
 531 717 531 717 567.5 693 c 128,-1,50
 604 669 604 669 614 626 c 0,51,52
 617 611 617 611 617 594 c 0,53,54
 617 513 617 513 547 415 c 2,55,-1
 374 170 l 2,56,57
 322 96 322 96 305 47 c 0,58,59
 297 26 297 26 297 15 c 0,60,61
 297 6 297 6 305 6 c 0,62,63
 345 6 345 6 402 46 c 0,64,65
 461 88 461 88 502 145 c 0,66,67
 668 380 668 380 872 614 c 0,68,69
 875 617 875 617 879 617 c 2,70,-1
 951 617 l 2,71,72
 955 617 955 617 956 615 c 1,73,74
 959 613 959 613 959 609 c 0,75,76
 959 606 959 606 957 604 c 0,77,78
 753 370 753 370 587 135 c 0,79,80
 547 78 547 78 531 36 c 0,81,82
 523 17 523 17 523 10 c 0,83,84
 523 6 523 6 527 6 c 0,85,86
 567 6 567 6 623 42 c 0,87,88
 681 80 681 80 716 131 c 0,89,90
 719 134 719 134 723 134 c 2,91,-1
 734 134 l 2,92,93
 743 134 743 134 743 126 c 0,94,95
 743 125 743 125 741 121 c 0,96,97
 702 66 702 66 637 25 c 1,98,99
 573 -17 573 -17 523 -17 c 0,100,101
 476 -17 476 -17 470 35 c 1,102,-1
 469 50 l 2,103,104
 469 57 469 57 471 73 c 1,105,106
 443 46 443 46 416 29 c 1,107,108
 349 -17 349 -17 301 -17 c 0,109,110
 247 -17 247 -17 243 46 c 1,111,-1
 243 51 l 2,112,113
 243 116 243 116 288 180 c 1,0,-1
EndSplineSet
EndChar

StartChar: V
Encoding: 86 86 20
Width: 622
Flags: W
HStem: -17 21G<190.5 205> 434 22<270.578 319.031> 580 22<199.086 265.036> 697 20G<539.5 553.5>
VStem: 221 49<456.064 512.199> 266 54<527.27 579.957>
LayerCount: 2
Fore
SplineSet
161 549 m 1,0,1
 117 519 117 519 82 471 c 0,2,3
 79 468 79 468 75 468 c 2,4,-1
 64 468 l 2,5,6
 55 468 55 468 55 476 c 0,7,8
 55 477 55 477 57 481 c 0,9,10
 93 532 93 532 148 566 c 1,11,12
 204 602 204 602 249 602 c 0,13,14
 280 602 280 602 300 590.5 c 128,-1,15
 320 579 320 579 320 560 c 128,-1,16
 320 541 320 541 298 519 c 0,17,18
 270 490 270 490 270 470 c 0,19,20
 270 456 270 456 285 456 c 0,21,22
 308 456 308 456 350 487 c 1,23,24
 383 513 383 513 410 546 c 1,25,26
 456 632 456 632 535 714 c 0,27,28
 538 717 538 717 541 717 c 2,29,-1
 552 717 l 2,30,31
 555 717 555 717 558 714 c 0,32,33
 560 712 560 712 560 708 c 128,-1,34
 560 704 560 704 558 703 c 0,35,36
 527 671 527 671 499.5 603 c 128,-1,37
 472 535 472 535 458 483 c 128,-1,38
 444 431 444 431 426 348 c 0,39,40
 404 250 404 250 339 148 c 1,41,-1
 347 156 l 1,42,43
 487 286 487 286 536 355 c 0,44,45
 551 376 551 376 584 425.5 c 128,-1,46
 617 475 617 475 637.5 503.5 c 128,-1,47
 658 532 658 532 691 572 c 128,-1,48
 724 612 724 612 760.5 643 c 128,-1,49
 797 674 797 674 840 699 c 0,50,51
 841 700 841 700 844 700 c 0,52,53
 850 700 850 700 852 694 c 2,54,-1
 857 674 l 2,55,56
 857 670 857 670 853 667 c 0,57,58
 820 647 820 647 788.5 621.5 c 128,-1,59
 757 596 757 596 735.5 575 c 128,-1,60
 714 554 714 554 685.5 518 c 128,-1,61
 657 482 657 482 643.5 464 c 128,-1,62
 630 446 630 446 600 402.5 c 128,-1,63
 570 359 570 359 560 345 c 0,64,65
 510 274 510 274 380.5 153.5 c 128,-1,66
 251 33 251 33 210 -14 c 0,67,68
 207 -17 207 -17 203 -17 c 2,69,-1
 192 -17 l 2,70,71
 189 -17 189 -17 187 -15 c 0,72,73
 184 -12 184 -12 184 -8 c 0,74,75
 184 -5 184 -5 186 -3 c 0,76,77
 230 42 230 42 262.5 110.5 c 128,-1,78
 295 179 295 179 307.5 225 c 128,-1,79
 320 271 320 271 338 352 c 0,80,81
 352 419 352 419 379 482 c 1,82,83
 369 474 369 474 364 471 c 0,84,85
 313 434 313 434 281 434 c 0,86,87
 253 434 253 434 237 446 c 128,-1,88
 221 458 221 458 221 478 c 0,89,90
 221 502 221 502 248 531 c 0,91,92
 266 549 266 549 266 564 c 0,93,94
 266 580 266 580 245 580 c 0,95,96
 210 580 210 580 161 549 c 1,0,1
EndSplineSet
EndChar

StartChar: W
Encoding: 87 87 21
Width: 805
Flags: W
HStem: -17 21G<105 119.5 324 341> 455 22<226.155 310.491> 608 22<157.76 214.619> 662 38<985.701 1029.94> 697 20G<528.5 542.5 750.5 767>
VStem: 170 55<477.247 525.902> 218 52<539.344 607.207>
LayerCount: 2
Fore
SplineSet
322 -4 m 0,0,1
 371 67 371 67 428 195 c 128,-1,2
 485 323 485 323 502 354 c 0,3,4
 530 405 530 405 643 569 c 1,5,6
 559 476 559 476 447 345 c 0,7,8
 246 111 246 111 124 -14 c 0,9,10
 121 -17 121 -17 118 -17 c 2,11,-1
 107 -17 l 2,12,13
 103 -17 103 -17 101 -14 c 1,14,15
 98 -12 98 -12 98 -8 c 128,-1,16
 98 -4 98 -4 101 -3 c 1,17,18
 166 65 166 65 280 353 c 0,19,20
 305 417 305 417 341 476 c 1,21,22
 289 455 289 455 246 455 c 0,23,24
 215 455 215 455 192.5 465.5 c 128,-1,25
 170 476 170 476 170 494 c 128,-1,26
 170 512 170 512 189 531 c 0,27,28
 218 561 218 561 218 584 c 0,29,30
 218 608 218 608 188 608 c 0,31,32
 170 608 170 608 149 591 c 128,-1,33
 128 574 128 574 113 555.5 c 128,-1,34
 98 537 98 537 73 503 c 1,35,36
 72 499 72 499 67 499 c 2,37,-1
 55 499 l 2,38,39
 47 499 47 499 47 508 c 0,40,41
 47 510 47 510 49 512 c 0,42,43
 131 630 131 630 192 630 c 0,44,45
 227 630 227 630 248.5 615 c 128,-1,46
 270 600 270 600 270 577 c 0,47,48
 270 549 270 549 240 519 c 0,49,50
 225 504 225 504 225 493 c 0,51,52
 225 477 225 477 250 477 c 0,53,54
 306 477 306 477 364 514 c 1,55,56
 433 622 433 622 524 714 c 0,57,58
 527 717 527 717 530 717 c 2,59,-1
 541 717 l 2,60,61
 544 717 544 717 547 714 c 1,62,63
 550 712 550 712 550 708 c 128,-1,64
 550 704 550 704 547 703 c 1,65,66
 517 672 517 672 480.5 602 c 128,-1,67
 444 532 444 532 423.5 483.5 c 128,-1,68
 403 435 403 435 368 347 c 0,69,70
 343 286 343 286 305 220 c 1,71,72
 336 255 336 255 436.5 371.5 c 128,-1,73
 537 488 537 488 606 564.5 c 128,-1,74
 675 641 675 641 746 714 c 0,75,76
 749 717 749 717 752 717 c 2,77,-1
 763 717 l 2,78,79
 771 717 771 717 771 708 c 0,80,81
 771 705 771 705 770 704 c 0,82,83
 720 633 720 633 662.5 504 c 128,-1,84
 605 375 605 375 589 346 c 0,85,86
 561 292 561 292 410 77 c 1,87,88
 433 96 433 96 514.5 159 c 128,-1,89
 596 222 596 222 642.5 265 c 128,-1,90
 689 308 689 308 722 355 c 0,91,92
 761 411 761 411 797.5 469.5 c 128,-1,93
 834 528 834 528 850.5 555.5 c 128,-1,94
 867 583 867 583 891 612.5 c 128,-1,95
 915 642 915 642 944.5 661 c 128,-1,96
 974 680 974 680 1021 699 c 0,97,98
 1022 700 1022 700 1025 700 c 0,99,100
 1030 700 1030 700 1032 695 c 1,101,-1
 1030 669 l 1,102,103
 1028 664 1028 664 1025 662 c 0,104,105
 984 645 984 645 952.5 622.5 c 128,-1,106
 921 600 921 600 895.5 568 c 128,-1,107
 870 536 870 536 851 507 c 128,-1,108
 832 478 832 478 802 429.5 c 128,-1,109
 772 381 772 381 747 345 c 0,110,111
 706 287 706 287 634 226 c 128,-1,112
 562 165 562 165 477.5 100 c 128,-1,113
 393 35 393 35 345 -14 c 1,114,115
 343 -17 343 -17 339 -17 c 2,116,-1
 328 -17 l 2,117,118
 320 -17 320 -17 320 -8 c 0,119,120
 320 -6 320 -6 322 -4 c 0,0,1
EndSplineSet
EndChar

StartChar: X
Encoding: 88 88 22
Width: 944
Flags: W
HStem: -17 23<167.377 276.047 597.729 691.2> 81 72<138.283 211.502> 336 22<503.124 577 687 765.968> 350 22<316.007 394.713> 694 23<520.244 638.823 999.829 1052.9>
VStem: 103 29<29.6526 88.3843> 273 26<386.655 480.836> 535 40<526.875 628.169> 535 25<42.1758 161.085> 689 64<495.36 648.428> 1031 101<647.999 693.204>
LayerCount: 2
Fore
SplineSet
477 460 m 1,0,1
 535 542 535 542 535 611 c 2,2,-1
 535 617 l 2,3,4
 535 622 535 622 539 625 c 2,5,-1
 546 629 l 2,6,7
 547 630 547 630 550 630 c 0,8,9
 554 630 554 630 556 627 c 0,10,11
 575 604 575 604 575 570 c 0,12,13
 575 514 575 514 529 450 c 0,14,15
 501 411 501 411 448 379 c 1,16,17
 398 350 398 350 351 350 c 0,18,19
 316 350 316 350 295.5 368 c 128,-1,20
 275 386 275 386 273 417 c 1,21,-1
 273 425 l 2,22,23
 273 484 273 484 329 565 c 1,24,25
 374 627 374 627 448 672 c 1,26,27
 524 717 524 717 585 717 c 0,28,29
 656 717 656 717 699 684.5 c 128,-1,30
 742 652 742 652 751 594 c 1,31,32
 753 574 753 574 753 564 c 0,33,34
 753 514 753 514 732 457 c 1,35,36
 800 539 800 539 863 599 c 1,37,38
 899 635 899 635 921.5 655 c 128,-1,39
 944 675 944 675 979.5 696 c 128,-1,40
 1015 717 1015 717 1042 717 c 0,41,42
 1132 717 1132 717 1132 687 c 0,43,44
 1132 675 1132 675 1121 660 c 0,45,46
 1101 631 1101 631 1064 631 c 0,47,48
 1031 631 1031 631 1031 665 c 0,49,50
 1031 682 1031 682 1054 694 c 1,51,-1
 1038 694 l 2,52,53
 1017 694 1017 694 987.5 676 c 128,-1,54
 958 658 958 658 936.5 639 c 128,-1,55
 915 620 915 620 879 584 c 0,56,57
 781 488 781 488 687 358 c 1,58,-1
 761 358 l 2,59,60
 765 358 765 358 766 357 c 0,61,62
 770 353 770 353 770 350 c 0,63,64
 770 349 770 349 764 340 c 1,65,66
 763 336 763 336 757 336 c 2,67,-1
 670 336 l 1,68,-1
 652 310 l 1,69,70
 560 180 560 180 560 93 c 2,71,-1
 560 90 l 1,72,73
 562 6 562 6 650 6 c 0,74,75
 687 6 687 6 747 55 c 0,76,77
 804 101 804 101 861 180 c 0,78,79
 862 183 862 183 868 183 c 2,80,-1
 879 183 l 2,81,82
 887 183 887 183 887 175 c 0,83,84
 887 172 887 172 885 170 c 0,85,86
 829 92 829 92 762 39 c 0,87,88
 692 -17 692 -17 647 -17 c 0,89,90
 594 -17 594 -17 565.5 11.5 c 128,-1,91
 537 40 537 40 535 86 c 1,92,-1
 535 96 l 2,93,94
 535 140 535 140 555 191 c 1,95,96
 500 131 500 131 434 80 c 0,97,98
 310 -17 310 -17 231 -17 c 0,99,100
 175 -17 175 -17 139 3 c 128,-1,101
 103 23 103 23 103 59 c 0,102,103
 103 87 103 87 128 124 c 0,104,105
 148 153 148 153 185 153 c 0,106,107
 218 153 218 153 218 119 c 0,108,109
 218 105 218 105 200.5 93 c 128,-1,110
 183 81 183 81 163 81 c 0,111,112
 147 81 147 81 138 89 c 1,113,114
 132 74 132 74 132 62 c 0,115,116
 132 35 132 35 160 20.5 c 128,-1,117
 188 6 188 6 235 6 c 0,118,119
 287 6 287 6 383 96 c 0,120,121
 458 166 458 166 566 320 c 0,122,123
 572 327 572 327 577 336 c 1,124,-1
 508 336 l 2,125,126
 507 336 507 336 503 338 c 0,127,128
 500 340 500 340 500 344 c 128,-1,129
 500 348 500 348 501 349 c 2,130,-1
 505 355 l 2,131,132
 506 358 506 358 512 358 c 2,133,-1
 592 358 l 1,134,135
 688 502 688 502 689 590 c 1,136,-1
 689 595 l 2,137,138
 689 641 689 641 661.5 667.5 c 128,-1,139
 634 694 634 694 581 694 c 0,140,141
 527 694 527 694 461 655 c 1,142,143
 396 615 396 615 354 555 c 1,144,145
 299 479 299 479 299 426 c 2,146,-1
 299 421 l 1,147,148
 301 372 301 372 355 372 c 0,149,150
 384 372 384 372 418 397 c 1,151,152
 443 414 443 414 477 460 c 1,0,1
EndSplineSet
EndChar

StartChar: Y
Encoding: 89 89 23
Width: 710
Flags: W
HStem: -17 23<167.366 312.057> 81 72<132.283 204.224> 189 22<462.152 525.154> 280 22<110.148 194.684> 694 23<403.685 537.661>
VStem: 57 26<324.917 423.822> 96 31<31.4868 88.712> 367 45<492.552 618.811> 390 68<214.309 307.337> 574 71<553.287 662.665>
LayerCount: 2
Fore
SplineSet
230 337 m 0,0,1
 262 363 262 363 306 425 c 0,2,3
 367 512 367 512 367 580 c 0,4,5
 367 597 367 597 362 615 c 1,6,-1
 362 618 l 2,7,8
 362 622 362 622 366 625 c 2,9,-1
 372 629 l 2,10,11
 373 630 373 630 376 630 c 0,12,13
 378 630 378 630 382 628 c 1,14,15
 412 600 412 600 412 554 c 0,16,17
 412 491 412 491 359 415 c 1,18,19
 317 358 317 358 261 320 c 1,20,21
 200 280 200 280 156 280 c 0,22,23
 73 280 73 280 59 346 c 0,24,25
 57 360 57 360 57 368 c 0,26,27
 57 424 57 424 106 495 c 1,28,29
 172 587 172 587 281 652 c 128,-1,30
 390 717 390 717 481 717 c 0,31,32
 597 717 597 717 633 648 c 0,33,34
 645 626 645 626 645 599 c 0,35,36
 645 544 645 544 602 485 c 1,37,-1
 503 345 l 2,38,39
 461 284 461 284 458 245 c 1,40,-1
 458 239 l 2,41,42
 458 211 458 211 484 211 c 0,43,44
 512 211 512 211 550 233 c 0,45,46
 555 237 555 237 565 250 c 0,47,48
 602 302 602 302 665 407 c 128,-1,49
 728 512 728 512 766 565 c 0,50,51
 778 582 778 582 794 597 c 128,-1,52
 810 612 810 612 832.5 627.5 c 128,-1,53
 855 643 855 643 869.5 652 c 128,-1,54
 884 661 884 661 913 677.5 c 128,-1,55
 942 694 942 694 951 699 c 0,56,57
 952 700 952 700 955 700 c 0,58,59
 962 700 962 700 963 696 c 2,60,-1
 965 688 l 2,61,62
 965 685 965 685 961 681 c 1,63,64
 867 625 867 625 818 555 c 0,65,66
 780 502 780 502 734.5 398 c 128,-1,67
 689 294 689 294 651 240 c 0,68,69
 577 136 577 136 461.5 59.5 c 128,-1,70
 346 -17 346 -17 251 -17 c 0,71,72
 185 -17 185 -17 140.5 2.5 c 128,-1,73
 96 22 96 22 96 61 c 0,74,75
 96 87 96 87 121 124 c 0,76,77
 141 153 141 153 178 153 c 0,78,79
 211 153 211 153 211 119 c 0,80,81
 211 105 211 105 193 93 c 128,-1,82
 175 81 175 81 156 81 c 0,83,84
 141 81 141 81 132 89 c 1,85,86
 127 78 127 78 127 65 c 0,87,88
 127 6 127 6 255 6 c 0,89,90
 315 6 315 6 386.5 60 c 128,-1,91
 458 114 458 114 526 198 c 1,92,93
 502 189 502 189 480 189 c 0,94,95
 415 189 415 189 397 240 c 0,96,97
 390 261 390 261 390 278 c 0,98,99
 390 315 390 315 417 355 c 1,100,-1
 516 495 l 1,101,102
 574 575 574 575 574 625 c 0,103,104
 574 634 574 634 573 639 c 0,105,106
 561 694 561 694 477 694 c 128,-1,107
 393 694 393 694 293 634 c 0,108,109
 194 574 194 574 131 485 c 0,110,111
 83 418 83 418 83 367 c 0,112,113
 83 357 83 357 84 352 c 0,114,115
 92 302 92 302 160 302 c 0,116,117
 188 302 188 302 230 337 c 0,0,1
EndSplineSet
EndChar

StartChar: Z
Encoding: 90 90 24
Width: 821
Flags: W
HStem: -17 56<432.771 608.712> -8 22<115.76 255.969> 90 22<161.625 297.916> 336 22<517.094 579 687 808.921> 350 22<267.277 352.694> 686 22<906.541 997.777> 694 23<508.636 614.146>
VStem: 81 31<17.9609 58.2745> 221 26<389.155 474.062> 472 47<486.619 586.816> 570 84<532.205 602.277> 619 70<623.367 691.903> 1008 26<612.041 677.432>
LayerCount: 2
Fore
SplineSet
375 397 m 1,0,1
 400 414 400 414 434 460 c 1,2,3
 472 515 472 515 472 557 c 0,4,5
 472 566 472 566 468 580 c 0,6,7
 467 581 467 581 467 583 c 0,8,9
 467 588 467 588 471 590 c 2,10,-1
 478 594 l 1,11,-1
 482 595 l 1,12,13
 484 594 l 2,14,15
 486 594 l 0,16,17
 519 577 519 577 519 537 c 0,18,19
 519 496 519 496 486 450 c 0,20,21
 458 411 458 411 405 379 c 1,22,23
 355 350 355 350 308 350 c 0,24,25
 237 350 237 350 223 405 c 1,26,27
 221 417 221 417 221 425 c 0,28,29
 221 472 221 472 262 530 c 0,30,31
 316 607 316 607 410 662 c 128,-1,32
 504 717 504 717 584 717 c 0,33,34
 653 717 653 717 679 680 c 1,35,36
 689 663 689 663 689 646 c 0,37,38
 689 620 689 620 668 590 c 0,39,40
 654 569 654 569 654 552 c 0,41,42
 654 542 654 542 658 535 c 0,43,44
 669 516 669 516 703 513 c 1,45,46
 772 605 772 605 835 656.5 c 128,-1,47
 898 708 898 708 966 708 c 0,48,49
 1016 708 1016 708 1030 672 c 0,50,51
 1034 663 1034 663 1034 650 c 0,52,53
 1034 621 1034 621 1012 590 c 0,54,55
 983 549 983 549 893 519 c 1,56,57
 829 499 829 499 761 492 c 1,58,59
 707 388 707 388 687 358 c 1,60,-1
 801 358 l 2,61,62
 810 358 810 358 810 350 c 0,63,64
 810 349 810 349 808 345 c 2,65,-1
 804 340 l 1,66,67
 803 336 803 336 797 336 c 2,68,-1
 672 336 l 1,69,70
 552 171 552 171 406 71 c 1,71,72
 485 39 485 39 548 39 c 0,73,74
 594 39 594 39 648 66.5 c 128,-1,75
 702 94 702 94 732 136 c 1,76,77
 733 140 733 140 738 140 c 2,78,-1
 750 140 l 2,79,80
 758 140 758 140 758 132 c 0,81,82
 758 129 758 129 756 127 c 0,83,84
 715 68 715 68 646.5 25.5 c 128,-1,85
 578 -17 578 -17 520 -17 c 0,86,87
 505 -17 505 -17 491.5 -15.5 c 128,-1,88
 478 -14 478 -14 464.5 -9.5 c 128,-1,89
 451 -5 451 -5 442.5 -2.5 c 128,-1,90
 434 0 434 0 419.5 8.5 c 128,-1,91
 405 17 405 17 401 19.5 c 128,-1,92
 397 22 397 22 381 33 c 128,-1,93
 365 44 365 44 363 45 c 1,94,95
 270 -8 270 -8 194 -8 c 2,96,-1
 185 -8 l 2,97,98
 81 -8 81 -8 81 26 c 0,99,100
 81 38 81 38 94 57 c 0,101,102
 132 112 132 112 239 112 c 0,103,104
 295 112 295 112 363 88 c 1,105,106
 455 163 455 163 579 336 c 1,107,-1
 520 336 l 2,108,109
 512 336 512 336 512 344 c 0,110,111
 512 345 512 345 512 347 c 2,112,-1
 513 349 l 1,113,-1
 517 355 l 2,114,115
 520 358 520 358 524 358 c 2,116,-1
 595 358 l 1,117,118
 603 369 603 369 635.5 417 c 128,-1,119
 668 465 668 465 687 491 c 1,120,121
 632 496 632 496 601 521 c 0,122,123
 570 545 570 545 570 567 c 0,124,125
 570 581 570 581 582 600 c 0,126,127
 586 606 586 606 595 620 c 128,-1,128
 604 634 604 634 608 640.5 c 128,-1,129
 612 647 612 647 615.5 656 c 128,-1,130
 619 665 619 665 619 671 c 0,131,132
 616 694 616 694 580 694 c 0,133,134
 506 694 506 694 423 644 c 0,135,136
 340 595 340 595 286 520 c 1,137,138
 247 464 247 464 247 424 c 0,139,140
 247 416 247 416 248 412 c 0,141,142
 256 372 256 372 312 372 c 0,143,144
 342 372 342 372 375 397 c 1,0,1
883 538 m 1,145,146
 963 565 963 565 987 600 c 1,147,148
 1008 628 1008 628 1008 652 c 0,149,150
 1008 657 1008 657 1006 663 c 0,151,152
 998 686 998 686 962 686 c 0,153,154
 901 686 901 686 858.5 642 c 128,-1,155
 816 598 816 598 773 515 c 1,156,157
 829 521 829 521 883 538 c 1,145,146
235 90 m 0,158,159
 148 90 148 90 118 48 c 0,160,161
 112 39 112 39 112 32 c 0,162,163
 112 20 112 20 132 17 c 128,-1,164
 152 14 152 14 198 14 c 0,165,166
 259 14 259 14 332 64 c 1,167,168
 285 90 285 90 235 90 c 0,158,159
EndSplineSet
EndChar

StartChar: tie
Encoding: 127 8256 25
Width: 278
Flags: W
HStem: 490 30<584.853 742.077>
VStem: 773 23<394.627 458.445>
LayerCount: 2
Fore
SplineSet
396 381 m 0,0,1
 437 440 437 440 519 479 c 1,2,3
 602 520 602 520 679 520 c 0,4,5
 758 520 758 520 786 476 c 0,6,7
 796 462 796 462 796 440 c 0,8,9
 796 407 796 407 771 372 c 0,10,11
 767 368 767 368 764 368 c 2,12,-1
 761 368 l 2,13,14
 760 368 760 368 756 370 c 0,15,16
 753 372 753 372 753 377 c 0,17,18
 753 380 753 380 754 381 c 0,19,20
 773 409 773 409 773 429 c 0,21,22
 773 445 773 445 763 457 c 1,23,24
 739 490 739 490 669 490 c 0,25,26
 596 490 596 490 522 455 c 0,27,28
 445 419 445 419 412 372 c 0,29,30
 410 368 410 368 405 368 c 2,31,-1
 403 368 l 2,32,33
 400 368 400 368 398 370 c 0,34,35
 394 372 394 372 394 377 c 0,36,37
 394 379 394 379 396 381 c 0,0,1
EndSplineSet
EndChar

StartChar: A
Encoding: 65 65 26
Width: 803
Flags: W
HStem: -8 22<74.5333 180.626> 0 21G<484 560.5> 66 73<64.2834 139.613> 433 22<343.641 456.479> 697 20G<979.5 992.5>
VStem: 35 24<27.6969 77.6901> 189 48<165.984 317.603> 582 27<196.181 313.535>
LayerCount: 2
Fore
SplineSet
739 148 m 1,0,1
 740 151 740 151 745 151 c 0,2,3
 747 151 747 151 748 150 c 0,4,5
 753 148 753 148 753 142 c 2,6,-1
 753 140 l 1,7,8
 751 134 751 134 749 132 c 0,9,10
 678 58 678 58 591 46 c 1,11,-1
 565 4 l 2,12,13
 563 0 563 0 558 0 c 2,14,-1
 486 0 l 2,15,16
 482 0 482 0 481 2 c 1,17,18
 477 4 477 4 477 8 c 0,19,20
 477 11 477 11 479 13 c 2,21,-1
 503 47 l 1,22,23
 391 55 391 55 317 85 c 1,24,25
 210 -8 210 -8 120 -8 c 0,26,27
 81 -8 81 -8 58 8 c 128,-1,28
 35 24 35 24 35 52 c 0,29,30
 35 78 35 78 57 110 c 0,31,32
 77 139 77 139 114 139 c 0,33,34
 147 139 147 139 147 105 c 0,35,36
 147 91 147 91 129 78.5 c 128,-1,37
 111 66 111 66 91 66 c 0,38,39
 73 66 73 66 64 78 c 1,40,41
 59 68 59 68 59 55 c 0,42,43
 59 14 59 14 124 14 c 0,44,45
 199 14 199 14 293 96 c 1,46,47
 189 146 189 146 189 238 c 0,48,49
 189 308 189 308 251 396 c 0,50,51
 271 424 271 424 308 439.5 c 128,-1,52
 345 455 345 455 380 455 c 0,53,54
 501 455 501 455 560 386 c 1,55,56
 637 457 637 457 782 567 c 0,57,58
 864 629 864 629 964 699 c 1,59,-1
 974 713 l 2,60,61
 978 717 978 717 981 717 c 2,62,-1
 992 717 l 2,63,64
 993 717 993 717 997 715 c 0,65,66
 1000 714 1000 714 1000 708 c 0,67,68
 1000 705 1000 705 999 704 c 2,69,-1
 606 71 l 1,70,71
 678 86 678 86 739 148 c 1,0,1
608 196 m 1,72,-1
 921 638 l 1,73,74
 858 594 858 594 803 553 c 0,75,76
 664 450 664 450 574 367 c 1,77,78
 609 312 609 312 609 227 c 0,79,80
 609 206 609 206 608 196 c 1,72,-1
292 374 m 0,81,82
 237 296 237 296 237 234 c 0,83,84
 237 161 237 161 316 117 c 1,85,86
 346 147 346 147 370 180 c 0,87,88
 436 274 436 274 540 368 c 1,89,90
 488 433 488 433 376 433 c 0,91,92
 358 433 358 433 333.5 415.5 c 128,-1,93
 309 398 309 398 292 374 c 0,81,82
394 170 m 0,94,95
 371 137 371 137 339 106 c 1,96,97
 409 75 409 75 518 69 c 1,98,-1
 576 150 l 1,99,100
 582 189 582 189 582 224 c 0,101,102
 582 300 582 300 553 349 c 1,103,104
 455 256 455 256 394 170 c 0,94,95
EndSplineSet
EndChar
